<svg width="124" height="94" viewBox="0 0 124 94" fill="none" xmlns="http://www.w3.org/2000/svg">
<circle cx="2" cy="32" r="2" transform="rotate(-90 2 32)" fill="white" fill-opacity="0.5"/>
<circle cx="2" cy="2" r="2" transform="rotate(-90 2 2)" fill="white" fill-opacity="0.5"/>
<circle cx="32" cy="32" r="2" transform="rotate(-90 32 32)" fill="white" fill-opacity="0.5"/>
<circle cx="32" cy="2" r="2" transform="rotate(-90 32 2)" fill="white" fill-opacity="0.5"/>
<circle cx="62" cy="32" r="2" transform="rotate(-90 62 32)" fill="white" fill-opacity="0.5"/>
<circle cx="62" cy="2" r="2" transform="rotate(-90 62 2)" fill="white" fill-opacity="0.5"/>
<circle cx="92" cy="92" r="2" transform="rotate(-90 92 92)" fill="white" fill-opacity="0.5"/>
<circle cx="92" cy="62" r="2" transform="rotate(-90 92 62)" fill="white" fill-opacity="0.5"/>
<circle cx="92" cy="32" r="2" transform="rotate(-90 92 32)" fill="white" fill-opacity="0.5"/>
<circle cx="92" cy="2" r="2" transform="rotate(-90 92 2)" fill="white" fill-opacity="0.5"/>
<circle cx="122" cy="92" r="2" transform="rotate(-90 122 92)" fill="white" fill-opacity="0.5"/>
<circle cx="122" cy="62" r="2" transform="rotate(-90 122 62)" fill="white" fill-opacity="0.5"/>
<circle cx="122" cy="32" r="2" transform="rotate(-90 122 32)" fill="white" fill-opacity="0.5"/>
<circle cx="122" cy="2" r="2" transform="rotate(-90 122 2)" fill="white" fill-opacity="0.5"/>
</svg>
