<svg width="94" height="94" viewBox="0 0 94 94" fill="none" xmlns="http://www.w3.org/2000/svg">
<circle cx="32" cy="92" r="2" transform="rotate(-180 32 92)" fill="white" fill-opacity="0.5"/>
<circle cx="62" cy="92" r="2" transform="rotate(-180 62 92)" fill="white" fill-opacity="0.5"/>
<circle cx="2" cy="92" r="2" transform="rotate(-180 2 92)" fill="white" fill-opacity="0.5"/>
<circle cx="32" cy="62" r="2" transform="rotate(-180 32 62)" fill="white" fill-opacity="0.5"/>
<circle cx="62" cy="62" r="2" transform="rotate(-180 62 62)" fill="white" fill-opacity="0.5"/>
<circle cx="2" cy="62" r="2" transform="rotate(-180 2 62)" fill="white" fill-opacity="0.5"/>
<circle cx="92" cy="62" r="2" transform="rotate(-180 92 62)" fill="white" fill-opacity="0.5"/>
<circle cx="92" cy="32" r="2" transform="rotate(-180 92 32)" fill="white" fill-opacity="0.5"/>
<circle cx="62" cy="32" r="2" transform="rotate(-180 62 32)" fill="white" fill-opacity="0.5"/>
<circle cx="32" cy="32" r="2" transform="rotate(-180 32 32)" fill="white" fill-opacity="0.5"/>
<circle cx="2" cy="32" r="2" transform="rotate(-180 2 32)" fill="white" fill-opacity="0.5"/>
<circle cx="92" cy="92" r="2" transform="rotate(-180 92 92)" fill="white" fill-opacity="0.5"/>
<circle cx="92" cy="2" r="2" transform="rotate(-180 92 2)" fill="white" fill-opacity="0.5"/>
<circle cx="62" cy="2" r="2" transform="rotate(-180 62 2)" fill="white" fill-opacity="0.5"/>
<circle cx="32" cy="2" r="2" transform="rotate(-180 32 2)" fill="white" fill-opacity="0.5"/>
<circle cx="2" cy="2" r="2" transform="rotate(-180 2 2)" fill="white" fill-opacity="0.5"/>
</svg>
