<svg width="193" height="41" viewBox="0 0 193 41" fill="none" xmlns="http://www.w3.org/2000/svg">
<path d="M47.0067 13.5558H40.0922V18.1784H45.8565V20.5001H40.0922V25.1098H47.0067V27.4314H37.7891V11.2471H47.0067V13.5558Z" fill="#0058A3"/>
<path d="M54.1636 27.6015C52.7689 27.6015 51.676 27.1716 50.8852 26.3117C50.0943 25.4518 49.698 24.1844 49.6963 22.5094V15.8669H52.0123V22.3159C52.0123 23.2962 52.2079 24.0365 52.6016 24.5421C52.9953 25.0477 53.6592 25.3005 54.6062 25.3005C55.4055 25.2886 56.1731 24.985 56.7652 24.4467C57.0915 24.1772 57.352 23.8365 57.5268 23.4507C57.7016 23.0648 57.7862 22.6441 57.774 22.2205V15.8669H60.09V27.4183H57.774V26.0718C56.8716 27.0916 55.6681 27.6015 54.1636 27.6015Z" fill="#0058A3"/>
<path d="M65.6385 18.3459C66.0274 17.525 66.6555 16.8414 67.4398 16.3855C68.2951 15.8956 69.2677 15.6494 70.2524 15.6735V18.2015C69.5577 17.9929 68.8129 18.0265 68.1397 18.2969C66.4756 18.9384 65.6427 20.2626 65.641 22.2695V27.4287H63.3379V15.867H65.641L65.6385 18.3459Z" fill="#0058A3"/>
<path d="M73.1416 17.42C73.9744 16.5844 75.0357 16.0152 76.1913 15.7846C77.3469 15.5539 78.5448 15.6722 79.6334 16.1243C80.7219 16.5764 81.6522 17.3421 82.3065 18.3244C82.9607 19.3068 83.3096 20.4616 83.3088 21.6427C83.3082 22.6241 83.0662 23.5902 82.6042 24.4554C82.1423 25.3206 81.4747 26.0584 80.6605 26.6033C79.8463 27.1482 78.9107 27.4835 77.9364 27.5794C76.9621 27.6754 75.9792 27.5291 75.0748 27.1534C74.1704 26.7778 73.3723 26.1844 72.7512 25.4259C72.1301 24.6673 71.7052 23.7669 71.514 22.8045C71.3229 21.842 71.3714 20.8471 71.6553 19.9079C71.9391 18.9687 72.4496 18.1142 73.1416 17.42ZM74.7859 24.2172C75.1239 24.5559 75.525 24.8247 75.9666 25.008C76.4081 25.1913 76.8813 25.2857 77.3592 25.2857C77.8372 25.2857 78.3104 25.1913 78.7519 25.008C79.1935 24.8247 79.5946 24.5559 79.9326 24.2172C80.2705 23.8784 80.5386 23.4763 80.7215 23.0337C80.9044 22.591 80.9985 22.1167 80.9985 21.6376C80.9985 21.1585 80.9044 20.6841 80.7215 20.2415C80.5386 19.7989 80.2705 19.3968 79.9326 19.058C79.2501 18.3738 78.3244 17.9895 77.3592 17.9895C76.3941 17.9895 75.4684 18.3738 74.7859 19.058C74.1034 19.7421 73.72 20.6701 73.72 21.6376C73.72 22.6051 74.1034 23.533 74.7859 24.2172Z" fill="#0058A3"/>
<path d="M91.7604 15.6736C92.5321 15.652 93.2996 15.7955 94.0117 16.0944C94.7239 16.3932 95.3644 16.8407 95.8906 17.407C96.9745 18.5459 97.564 20.069 97.5298 21.6427C97.566 23.2153 96.9794 24.7383 95.8983 25.8784C95.3703 26.4439 94.7281 26.89 94.0146 27.1871C93.3011 27.4843 92.5326 27.6256 91.7604 27.6016C91.0162 27.6233 90.2779 27.4638 89.6088 27.1367C88.9396 26.8096 88.3596 26.3247 87.9184 25.7236V33.5708H85.6152V15.867H87.9184V17.5412C88.3607 16.942 88.9412 16.4591 89.6103 16.1339C90.2794 15.8086 91.0171 15.6507 91.7604 15.6736ZM88.9863 24.2301C89.6708 24.9163 90.5993 25.3018 91.5674 25.3018C92.5354 25.3018 93.4639 24.9163 94.1484 24.2301C94.833 23.5439 95.2175 22.6132 95.2175 21.6427C95.2175 20.6723 94.833 19.7416 94.1484 19.0554C93.4639 18.3692 92.5354 17.9837 91.5674 17.9837C90.5993 17.9837 89.6708 18.3692 88.9863 19.0554C88.3018 19.7416 87.9172 20.6723 87.9172 21.6427C87.9172 22.6132 88.3018 23.5439 88.9863 24.2301Z" fill="#0058A3"/>
<path d="M110.581 21.6917C110.583 22.0301 110.559 22.3681 110.509 22.7029H101.796C101.862 23.0998 102.011 23.4784 102.233 23.8139C102.454 24.1495 102.744 24.4345 103.083 24.6505C103.823 25.1004 104.677 25.3261 105.543 25.3005C106.804 25.2968 108.031 24.8922 109.048 24.1449L109.82 26.2085C108.715 27.1372 107.274 27.6024 105.496 27.6041C103.561 27.6041 102.069 27.0383 101.019 25.9067C99.9688 24.7751 99.443 23.3538 99.4413 21.6427C99.3932 20.0721 99.9572 18.5445 101.014 17.3838C102.064 16.2436 103.452 15.6735 105.18 15.6735C105.905 15.6526 106.627 15.788 107.296 16.0706C107.965 16.3531 108.566 16.7763 109.058 17.3115C110.075 18.4036 110.583 19.8636 110.581 21.6917ZM101.796 20.585H108.229C108.188 19.8978 107.887 19.2521 107.388 18.7793C106.861 18.2428 106.093 17.9745 105.085 17.9745C104.224 17.9329 103.381 18.2258 102.73 18.7922C102.462 19.0125 102.241 19.2849 102.08 19.593C101.92 19.9011 101.823 20.2385 101.796 20.585Z" fill="#0058A3"/>
<path d="M120.762 25.3005C121.546 25.32 122.325 25.1737 123.049 24.871C123.773 24.5683 124.426 24.1161 124.964 23.5438L125.947 25.7107C125.269 26.3325 124.474 26.8114 123.608 27.1191C122.742 27.4398 121.828 27.6066 120.906 27.6118C119.803 27.6308 118.707 27.4249 117.686 27.0068C116.664 26.5886 115.738 25.9669 114.964 25.1793C114.173 24.4278 113.546 23.5202 113.123 22.5137C112.699 21.5072 112.488 20.4236 112.504 19.3313C112.489 18.2392 112.7 17.1558 113.123 16.1493C113.547 15.1429 114.173 14.2352 114.964 13.4834C115.739 12.6966 116.665 12.0756 117.686 11.6579C118.708 11.2402 119.803 11.0346 120.906 11.0534C121.831 11.0554 122.749 11.2186 123.618 11.5358C124.482 11.8358 125.274 12.3109 125.947 12.9314L124.964 15.0956C124.422 14.5304 123.768 14.0845 123.045 13.7865C122.321 13.4884 121.543 13.3448 120.762 13.3647C119.979 13.3634 119.205 13.5168 118.482 13.8161C117.759 14.1154 117.102 14.5548 116.549 15.1091C115.996 15.6634 115.557 16.3217 115.258 17.0462C114.959 17.7707 114.806 18.5473 114.807 19.3313C114.805 20.1156 114.959 20.8924 115.257 21.6172C115.556 22.3421 115.995 23.0006 116.548 23.5552C117.101 24.1098 117.758 24.5494 118.481 24.8489C119.204 25.1484 119.979 25.3019 120.762 25.3005Z" fill="#0058A3"/>
<path d="M129.608 17.42C130.441 16.5844 131.503 16.0152 132.658 15.7846C133.814 15.5539 135.012 15.6722 136.1 16.1243C137.189 16.5764 138.119 17.3421 138.773 18.3244C139.428 19.3068 139.776 20.4616 139.776 21.6427C139.775 22.6241 139.533 23.5902 139.071 24.4554C138.609 25.3206 137.942 26.0584 137.127 26.6033C136.313 27.1482 135.377 27.4835 134.403 27.5794C133.429 27.6754 132.446 27.5291 131.542 27.1534C130.637 26.7778 129.839 26.1844 129.218 25.4259C128.597 24.6673 128.172 23.7669 127.981 22.8045C127.79 21.842 127.838 20.8471 128.122 19.9079C128.406 18.9687 128.916 18.1142 129.608 17.42ZM131.253 24.2172C131.591 24.5559 131.992 24.8247 132.433 25.008C132.875 25.1913 133.348 25.2857 133.826 25.2857C134.304 25.2857 134.777 25.1913 135.219 25.008C135.66 24.8247 136.061 24.5559 136.399 24.2172C136.737 23.8784 137.005 23.4763 137.188 23.0337C137.371 22.591 137.465 22.1167 137.465 21.6376C137.465 21.1585 137.371 20.6841 137.188 20.2415C137.005 19.7989 136.737 19.3968 136.399 19.058C136.061 18.7192 135.66 18.4505 135.219 18.2672C134.777 18.0839 134.304 17.9895 133.826 17.9895C133.348 17.9895 132.875 18.0839 132.433 18.2672C131.992 18.4505 131.591 18.7192 131.253 19.058C130.915 19.3968 130.647 19.7989 130.464 20.2415C130.281 20.6841 130.187 21.1585 130.187 21.6376C130.187 22.1167 130.281 22.591 130.464 23.0337C130.647 23.4763 130.915 23.8784 131.253 24.2172Z" fill="#0058A3"/>
<path d="M147.987 15.6736C149.378 15.6736 150.47 16.1035 151.263 16.9634C152.055 17.8232 152.452 19.0907 152.452 20.7657V27.4081H150.136V20.9592C150.136 19.9789 149.94 19.2386 149.549 18.733C149.158 18.2274 148.489 17.9746 147.544 17.9746C146.748 17.9902 145.983 18.2944 145.393 18.831C145.067 19.1005 144.806 19.4412 144.632 19.827C144.457 20.2128 144.372 20.6336 144.384 21.0572V27.4107H142.068V15.8671H144.384V17.2136C145.283 16.1869 146.484 15.6736 147.987 15.6736Z" fill="#0058A3"/>
<path d="M156.101 23.6394V18.1784H154.557V15.8568H156.101V11.2471H158.417V15.8671H160.733V18.1887H158.417V22.9894C158.417 24.0986 158.568 24.765 158.872 24.9885C159.335 25.3419 159.953 25.3239 160.722 24.9395V27.2612C160.183 27.503 159.596 27.6194 159.006 27.6017C157.071 27.6017 156.102 26.2809 156.101 23.6394Z" fill="#0058A3"/>
<path d="M166.088 18.3461C166.477 17.5251 167.105 16.8416 167.89 16.3856C168.744 15.8962 169.716 15.6501 170.7 15.6737V18.2017C170.005 17.9931 169.26 18.0267 168.587 18.2971C166.921 18.9386 166.088 20.2628 166.088 22.2697V27.4289H163.785V15.8671H166.088V18.3461Z" fill="#0058A3"/>
<path d="M173.592 17.42C174.425 16.5844 175.486 16.0152 176.642 15.7846C177.797 15.5539 178.995 15.6722 180.084 16.1243C181.172 16.5764 182.102 17.3421 182.757 18.3244C183.411 19.3068 183.76 20.4616 183.759 21.6427C183.758 22.6241 183.516 23.5902 183.054 24.4554C182.593 25.3206 181.925 26.0584 181.111 26.6033C180.297 27.1482 179.361 27.4835 178.387 27.5794C177.412 27.6754 176.429 27.5291 175.525 27.1534C174.621 26.7778 173.823 26.1844 173.201 25.4259C172.58 24.6673 172.155 23.7669 171.964 22.8045C171.773 21.842 171.822 20.8471 172.105 19.9079C172.389 18.9687 172.9 18.1142 173.592 17.42ZM175.244 24.2172C175.582 24.5559 175.983 24.8247 176.424 25.008C176.866 25.1913 177.339 25.2857 177.817 25.2857C178.295 25.2857 178.768 25.1913 179.21 25.008C179.651 24.8247 180.053 24.5559 180.391 24.2172C180.728 23.8784 180.997 23.4763 181.179 23.0337C181.362 22.591 181.456 22.1167 181.456 21.6376C181.456 21.1585 181.362 20.6841 181.179 20.2415C180.997 19.7989 180.728 19.3968 180.391 19.058C179.708 18.3738 178.782 17.9895 177.817 17.9895C176.852 17.9895 175.926 18.3738 175.244 19.058C174.561 19.7421 174.178 20.6701 174.178 21.6376C174.178 22.6051 174.561 23.533 175.244 24.2172Z" fill="#0058A3"/>
<path d="M186.064 10.4756H188.38V27.4183H186.064V10.4756Z" fill="#0058A3"/>
<path d="M29.5753 31.3135C26.4147 31.3135 23.3835 30.055 21.1486 27.8146C18.9138 25.5743 17.6582 22.5358 17.6582 19.3675C17.6582 16.1992 18.9138 13.1606 21.1486 10.9203C23.3835 8.67999 26.4147 7.42139 29.5753 7.42139V11.2237C27.4207 11.2237 25.3543 12.0817 23.8308 13.609C22.3072 15.1362 21.4513 17.2076 21.4513 19.3675C21.4513 21.5273 22.3072 23.5987 23.8308 25.126C25.3543 26.6532 27.4207 27.5112 29.5753 27.5112V31.3135Z" fill="#FFDB00"/>
<path d="M16.5489 11.2237V7.42139C13.3883 7.42139 10.3572 8.67999 8.12228 10.9203C5.88738 13.1606 4.63184 16.1992 4.63184 19.3675C4.63184 22.5358 5.88738 25.5743 8.12228 27.8146C10.3572 30.055 13.3883 31.3135 16.5489 31.3135V27.5112C14.6744 27.5087 12.8582 26.8577 11.4071 25.6682C9.95605 24.4786 8.95902 22.8235 8.58448 20.9823H13.3374V17.1774H8.72601C9.20447 15.466 10.2277 13.9581 11.6399 12.8833C13.052 11.8086 14.7759 11.2258 16.5489 11.2237Z" fill="#0058A3"/>
</svg>
