<svg aria-hidden="true" style="position: absolute; width: 0; height: 0; overflow: hidden;" version="1.1" xmlns="http://www.w3.org/2000/svg" xmlns:xlink="http://www.w3.org/1999/xlink">
<defs>
<symbol id="i-monitor" viewBox="0 0 32 32">
<path fill="none" stroke="currentColor" stroke-linejoin="round" stroke-linecap="round" stroke-miterlimit="4" stroke-width="1.1636" d="M26.667 5.334h-8c-1.473 0-2.667 1.194-2.667 2.667v17.333c0 1.473 1.194 2.667 2.667 2.667h8c1.473 0 2.667-1.194 2.667-2.667v-17.333c0-1.473-1.194-2.667-2.667-2.667z"></path>
<path fill="none" stroke="currentColor" stroke-linejoin="round" stroke-linecap="round" stroke-miterlimit="4" stroke-width="1.1636" d="M22.667 23.333c1.473 0 2.667-1.194 2.667-2.667s-1.194-2.667-2.667-2.667c-1.473 0-2.667 1.194-2.667 2.667s1.194 2.667 2.667 2.667z"></path>
<path fill="none" stroke="currentColor" stroke-linejoin="round" stroke-linecap="round" stroke-miterlimit="4" stroke-width="1.1636" d="M12 22.667h-6.667c-0.707 0-1.386-0.281-1.886-0.781s-0.781-1.178-0.781-1.886v-12c0-0.707 0.281-1.386 0.781-1.886s1.178-0.781 1.886-0.781h6.667"></path>
<path fill="none" stroke="currentColor" stroke-linejoin="round" stroke-linecap="round" stroke-miterlimit="4" stroke-width="1.1636" d="M6.666 26.666h5.333"></path>
<path fill="none" stroke="currentColor" stroke-linejoin="round" stroke-linecap="round" stroke-miterlimit="4" stroke-width="1.1636" d="M22.733 12.001c0 0.013-0.004 0.026-0.011 0.037s-0.018 0.020-0.030 0.025c-0.012 0.005-0.026 0.006-0.039 0.004s-0.025-0.009-0.034-0.018-0.016-0.021-0.018-0.034c-0.003-0.013-0.001-0.026 0.004-0.039s0.014-0.023 0.025-0.030 0.024-0.011 0.037-0.011c0.009 0 0.017 0.002 0.026 0.005s0.015 0.008 0.022 0.014c0.006 0.006 0.011 0.014 0.014 0.022s0.005 0.017 0.005 0.026"></path>
</symbol>
<symbol id="i-car" viewBox="0 0 32 32">
<path fill="none" stroke="currentColor" stroke-linejoin="round" stroke-linecap="round" stroke-miterlimit="4" stroke-width="1.1636" d="M24 18.666v0c2.945 0 5.333 2.388 5.333 5.333s-2.388 5.333-5.333 5.333c-2.945 0-5.333-2.388-5.333-5.333v0c0-2.945 2.388-5.333 5.333-5.333"></path>
<path fill="none" stroke="currentColor" stroke-linejoin="round" stroke-linecap="round" stroke-miterlimit="4" stroke-width="1.1636" d="M25.798 23.102l-2.245 2.252-1.349-1.355"></path>
<path fill="none" stroke="currentColor" stroke-linejoin="round" stroke-linecap="round" stroke-miterlimit="4" stroke-width="1.1636" d="M11.098 15.295h-2.824"></path>
<path fill="none" stroke="currentColor" stroke-linejoin="round" stroke-linecap="round" stroke-miterlimit="4" stroke-width="1.1636" d="M22.471 15.295h-2.824"></path>
<path fill="none" stroke="currentColor" stroke-linejoin="round" stroke-linecap="round" stroke-miterlimit="4" stroke-width="1.1636" d="M23.882 11.059l2.823-1.412"></path>
<path fill="none" stroke="currentColor" stroke-linejoin="round" stroke-linecap="round" stroke-miterlimit="4" stroke-width="1.1636" d="M6.863 11.059l-2.824-1.412"></path>
<path fill="none" stroke="currentColor" stroke-linejoin="round" stroke-linecap="round" stroke-miterlimit="4" stroke-width="1.1636" d="M10.779 4v0c-1.312 0-2.452 0.904-2.751 2.181v0c0.299-1.278 1.438-2.181 2.751-2.181h9.188c1.312-0 2.451 0.904 2.749 2.181l1.2 5.12"></path>
<path fill="none" stroke="currentColor" stroke-linejoin="round" stroke-linecap="round" stroke-miterlimit="4" stroke-width="1.1636" d="M26.705 16v-1.053c0-2.084-1.688-3.774-3.772-3.777h-15.116c-2.086-0.001-3.778 1.69-3.779 3.776 0 0 0 0.001 0 0.001v6.387c0 0.736 0.597 1.333 1.333 1.333v0h2.981c0.736 0 1.333-0.597 1.333-1.333v-1.804h6.313"></path>
</symbol>
<symbol id="i-lab" viewBox="0 0 32 32">
<path fill="none" stroke="currentColor" stroke-linejoin="round" stroke-linecap="round" stroke-miterlimit="4" stroke-width="1.1636" d="M25.333 10.667v-4c0-1.473-1.194-2.667-2.667-2.667h-16c-1.473 0-2.667 1.194-2.667 2.667v0 17.333"></path>
<path fill="none" stroke="currentColor" stroke-linejoin="round" stroke-linecap="round" stroke-miterlimit="4" stroke-width="1.1636" d="M9.334 4v17.333"></path>
<path fill="none" stroke="currentColor" stroke-linejoin="round" stroke-linecap="round" stroke-miterlimit="4" stroke-width="1.1636" d="M14.667 21.334h-8c-1.473 0-2.667 1.194-2.667 2.667v0 0c0 1.473 1.194 2.667 2.667 2.667h6.667"></path>
<path fill="none" stroke="currentColor" stroke-linejoin="round" stroke-linecap="round" stroke-miterlimit="4" stroke-width="1.1636" d="M26.466 14.666h-6"></path>
<path fill="none" stroke="currentColor" stroke-linejoin="round" stroke-linecap="round" stroke-miterlimit="4" stroke-width="1.1636" d="M25.467 14.666v5.043l3.457 5.547c0.779 1.25 0.398 2.895-0.852 3.674-0.422 0.263-0.908 0.403-1.405 0.404h-6.393c-1.473 0.002-2.668-1.19-2.67-2.663-0.001-0.5 0.139-0.99 0.404-1.414l3.457-5.547v-5.043"></path>
<path fill="none" stroke="currentColor" stroke-linejoin="round" stroke-linecap="round" stroke-miterlimit="4" stroke-width="1.1636" d="M25.653 20h-4.36"></path>
</symbol>
<symbol id="i-package" viewBox="0 0 32 32">
<path fill="none" stroke="currentColor" stroke-linejoin="round" stroke-linecap="round" stroke-miterlimit="4" stroke-width="1.1636" d="M28 10.785v14.548c0 1.473-1.194 2.667-2.667 2.667h-18.667c-1.473 0-2.667-1.194-2.667-2.667v-14.548c-0.001-0.362 0.073-0.72 0.215-1.052l1.76-4.119c0.421-0.98 1.385-1.615 2.452-1.615h15.147c1.068 0 2.032 0.637 2.452 1.619l1.76 4.115c0.142 0.332 0.215 0.69 0.215 1.052v0z"></path>
<path fill="none" stroke="currentColor" stroke-linejoin="round" stroke-linecap="round" stroke-miterlimit="4" stroke-width="1.1636" d="M4 10.666h23.987"></path>
<path fill="none" stroke="currentColor" stroke-linejoin="round" stroke-linecap="round" stroke-miterlimit="4" stroke-width="1.1636" d="M18.667 4l1.333 6.667v4.3c-0.033 0.601-0.545 1.063-1.147 1.033h-5.707c-0.601 0.029-1.114-0.432-1.147-1.033v-4.3l1.333-6.667"></path>
<path fill="none" stroke="currentColor" stroke-linejoin="round" stroke-linecap="round" stroke-miterlimit="4" stroke-width="1.1636" d="M8 24h2.667"></path>
</symbol>
<symbol id="i-bookmark" viewBox="0 0 32 32">
<path fill="none" stroke="currentColor" stroke-linejoin="round" stroke-linecap="round" stroke-miterlimit="4" stroke-width="1.1636" d="M5.334 6.667v18.667c0 0.707 0.281 1.385 0.781 1.886s1.178 0.781 1.886 0.781h16c0.707 0 1.386-0.281 1.886-0.781s0.781-1.178 0.781-1.886v-13.333c0-0.707-0.281-1.386-0.781-1.886s-1.178-0.781-1.886-0.781h-16c-0.707 0-1.385-0.281-1.886-0.781s-0.781-1.178-0.781-1.886v0zM5.334 6.667c0-0.707 0.281-1.385 0.781-1.886s1.178-0.781 1.886-0.781h17.333"></path>
<path fill="none" stroke="currentColor" stroke-linejoin="round" stroke-linecap="round" stroke-miterlimit="4" stroke-width="1.1636" d="M16 9.334v6.667l-2.667-1.333-2.667 1.333v-6.667"></path>
</symbol>
<symbol id="i-pizza" viewBox="0 0 32 32">
<path fill="none" stroke="currentColor" stroke-linejoin="round" stroke-linecap="round" stroke-miterlimit="4" stroke-width="1.1636" d="M9.833 3.842c4.756 0.316 9.236 2.348 12.606 5.718s5.402 7.85 5.718 12.606c0.016 0.364-0.1 0.722-0.327 1.007s-0.55 0.479-0.908 0.544l-20.94 4.092c-0.246 0.048-0.5 0.035-0.739-0.038s-0.457-0.204-0.634-0.381c-0.177-0.177-0.308-0.395-0.381-0.634s-0.086-0.493-0.038-0.739l4.092-20.94c0.066-0.359 0.259-0.681 0.544-0.908s0.643-0.343 1.007-0.327v0z"></path>
<path fill="none" stroke="currentColor" stroke-linejoin="round" stroke-linecap="round" stroke-miterlimit="4" stroke-width="1.1636" d="M23.225 24.351c0.151-2.084-0.149-4.176-0.879-6.135s-1.872-3.736-3.35-5.214c-1.478-1.478-3.256-2.62-5.214-3.35s-4.050-1.029-6.135-0.879"></path>
<path fill="currentColor" d="M13.733 15.333c0 0.736-0.597 1.333-1.333 1.333s-1.333-0.597-1.333-1.333c0-0.736 0.597-1.333 1.333-1.333s1.333 0.597 1.333 1.333z"></path>
<path fill="currentColor" d="M17.867 19.333c0 0.736-0.597 1.333-1.333 1.333s-1.333-0.597-1.333-1.333c0-0.736 0.597-1.333 1.333-1.333s1.333 0.597 1.333 1.333z"></path>
<path fill="currentColor" d="M11.733 21.6c0 0.736-0.597 1.333-1.333 1.333s-1.333-0.597-1.333-1.333c0-0.736 0.597-1.333 1.333-1.333s1.333 0.597 1.333 1.333z"></path>
</symbol>
<symbol id="i-flattener" viewBox="0 0 32 32">
<path fill="none" stroke="currentColor" stroke-linejoin="round" stroke-linecap="round" stroke-miterlimit="4" stroke-width="1.1636" d="M11.112 14.212l-4.362 11.997c-0.087 0.238-0.104 0.497-0.049 0.744s0.179 0.475 0.359 0.654c0.179 0.179 0.406 0.304 0.654 0.359s0.506 0.038 0.744-0.049l11.997-4.362c0.211-0.077 0.399-0.205 0.547-0.374s0.251-0.372 0.299-0.591c0.049-0.219 0.041-0.447-0.022-0.662s-0.179-0.411-0.337-0.57l-7.634-7.634c-0.159-0.159-0.354-0.274-0.57-0.337s-0.443-0.070-0.662-0.022c-0.219 0.049-0.422 0.152-0.591 0.299s-0.297 0.336-0.374 0.547z"></path>
<path fill="none" stroke="currentColor" stroke-linejoin="round" stroke-linecap="round" stroke-miterlimit="4" stroke-width="1.1636" d="M18.364 13.030l6.266-6.267c0.45-0.45 0.703-1.061 0.703-1.697s-0.253-1.247-0.703-1.697v0c-0.223-0.223-0.487-0.4-0.779-0.52s-0.603-0.183-0.919-0.183c-0.315 0-0.627 0.062-0.919 0.183s-0.556 0.297-0.779 0.52l-5.324 5.324c-0.25 0.25-0.391 0.589-0.391 0.943s0.14 0.693 0.391 0.943l2.452 2.452z"></path>
<path fill="none" stroke="currentColor" stroke-linejoin="round" stroke-linecap="round" stroke-miterlimit="4" stroke-width="1.1636" d="M15.912 10.58l3.145 3.145c0.124 0.124 0.222 0.271 0.289 0.433s0.101 0.335 0.101 0.51c0 0.175-0.034 0.348-0.101 0.51s-0.165 0.309-0.289 0.433l-4.391 4.391"></path>
</symbol>
<symbol id="i-cash" viewBox="0 0 32 32">
<path fill="none" stroke="currentColor" stroke-linejoin="round" stroke-linecap="round" stroke-miterlimit="4" stroke-width="1.1636" d="M16 4v0c4.787 0 8.667 3.88 8.667 8.667s-3.88 8.667-8.667 8.667c-4.786 0-8.667-3.88-8.667-8.667v0c0-4.786 3.88-8.667 8.667-8.667 0 0 0 0 0 0"></path>
<path fill="none" stroke="currentColor" stroke-linejoin="round" stroke-linecap="round" stroke-miterlimit="4" stroke-width="1.1636" d="M9.334 21.334h13.333"></path>
<path fill="none" stroke="currentColor" stroke-linejoin="round" stroke-linecap="round" stroke-miterlimit="4" stroke-width="1.1636" d="M16 9.365v-1.101"></path>
<path fill="none" stroke="currentColor" stroke-linejoin="round" stroke-linecap="round" stroke-miterlimit="4" stroke-width="1.1636" d="M16 15.968v1.101"></path>
<path fill="none" stroke="currentColor" stroke-linejoin="round" stroke-linecap="round" stroke-miterlimit="4" stroke-width="1.1636" d="M14.092 15.183v0c0.283 0.483 0.799 0.781 1.358 0.786h1.211c0.851 0.021 1.558-0.651 1.579-1.502 0.018-0.736-0.486-1.382-1.205-1.542l-2.062-0.518c-0.828-0.194-1.343-1.023-1.149-1.852 0.165-0.703 0.795-1.197 1.516-1.189h1.211c0.56 0.004 1.076 0.302 1.359 0.786"></path>
<path fill="none" stroke="currentColor" stroke-linejoin="round" stroke-linecap="round" stroke-miterlimit="4" stroke-width="1.1636" d="M24.001 16h1.332c1.473 0 2.667 1.194 2.667 2.667v6.667c0 1.473-1.194 2.667-2.667 2.667h-18.667c-1.473 0-2.667-1.194-2.667-2.667v-6.667c0-1.473 1.194-2.667 2.667-2.667h1.332"></path>
</symbol>
<symbol id="i-building" viewBox="0 0 32 32">
<path fill="none" stroke="currentColor" stroke-linejoin="round" stroke-linecap="round" stroke-miterlimit="4" stroke-width="1.1636" d="M10.666 18.666v9.333"></path>
<path fill="none" stroke="currentColor" stroke-linejoin="round" stroke-linecap="round" stroke-miterlimit="4" stroke-width="1.1636" d="M16 18.666v9.333"></path>
<path fill="none" stroke="currentColor" stroke-linejoin="round" stroke-linecap="round" stroke-miterlimit="4" stroke-width="1.1636" d="M21.334 18.666v9.333"></path>
<path fill="none" stroke="currentColor" stroke-linejoin="round" stroke-linecap="round" stroke-miterlimit="4" stroke-width="0.8727" d="M29.333 28h-26.667"></path>
<path fill="none" stroke="currentColor" stroke-linejoin="round" stroke-linecap="round" stroke-miterlimit="4" stroke-width="1.1636" d="M16 9.333v-6c0-0.368 0.298-0.667 0.667-0.667h4c0.368 0 0.667 0.298 0.667 0.667v1.891c0 0.368-0.298 0.667-0.667 0.667h-4.667"></path>
<path fill="none" stroke="currentColor" stroke-linejoin="round" stroke-linecap="round" stroke-miterlimit="4" stroke-width="1.1636" d="M10.666 13.334v-2.114c0-0.354 0.14-0.693 0.39-0.943l0.552-0.552c0.25-0.25 0.589-0.391 0.943-0.391h6.896c0.354 0 0.693 0.141 0.943 0.391l0.552 0.552c0.25 0.25 0.391 0.589 0.391 0.943v2.115"></path>
<path fill="none" stroke="currentColor" stroke-linejoin="round" stroke-linecap="round" stroke-miterlimit="4" stroke-width="1.1636" d="M5.334 18.666h21.333"></path>
<path fill="none" stroke="currentColor" stroke-linejoin="round" stroke-linecap="round" stroke-miterlimit="4" stroke-width="1.1636" d="M26.667 28.001v-12.781c0-0.354-0.14-0.693-0.391-0.943l-0.552-0.552c-0.25-0.25-0.589-0.391-0.943-0.391h-17.563c-0.354 0-0.693 0.141-0.943 0.391l-0.552 0.552c-0.25 0.25-0.391 0.589-0.391 0.943v12.781"></path>
</symbol>
<symbol id="i-heartbeat" viewBox="0 0 32 32">
<path fill="none" stroke="currentColor" stroke-linejoin="round" stroke-linecap="round" stroke-miterlimit="4" stroke-width="1.1636" d="M25.355 4.713c0.304-0.336 0.831-0.713 1.633-0.713 1.404 0 2.345 1.241 2.345 2.397 0 2.417-3.192 4.269-3.979 4.269s-3.979-1.852-3.979-4.269c-0.001-1.156 0.941-2.397 2.345-2.397 0.801 0 1.328 0.377 1.633 0.713z"></path>
<path fill="none" stroke="currentColor" stroke-linejoin="round" stroke-linecap="round" stroke-miterlimit="4" stroke-width="1.1636" d="M17.333 4.080c-0.437-0.052-0.881-0.080-1.333-0.080-5.223 0-9.653 3.343-11.303 8"></path>
<path fill="none" stroke="currentColor" stroke-linejoin="round" stroke-linecap="round" stroke-miterlimit="4" stroke-width="1.1636" d="M21.333 16h-2.311l-2.311 5.332-4.624-10.664-2.492 5.332h-5.596"></path>
<path fill="none" stroke="currentColor" stroke-linejoin="round" stroke-linecap="round" stroke-miterlimit="4" stroke-width="1.1636" d="M27.92 14.666c0.051 0.437 0.080 0.881 0.080 1.333 0 6.628-5.372 12-12 12-5.223 0-9.653-3.343-11.303-8"></path>
</symbol>
<symbol id="i-city" viewBox="0 0 32 32">
<path fill="none" stroke="currentColor" stroke-linejoin="round" stroke-linecap="round" stroke-miterlimit="4" stroke-width="1.1636" d="M10.666 28.001v-17.333c0-0.736 0.597-1.333 1.333-1.333h8c0.736 0 1.333 0.597 1.333 1.333v17.333"></path>
<path fill="none" stroke="currentColor" stroke-linejoin="round" stroke-linecap="round" stroke-miterlimit="4" stroke-width="1.1636" d="M14.666 5.334h2.667c0.736 0 1.333 0.597 1.333 1.333v2.667h-5.333v-2.667c0-0.736 0.597-1.333 1.333-1.333v0z"></path>
<path fill="none" stroke="currentColor" stroke-linejoin="round" stroke-linecap="round" stroke-miterlimit="4" stroke-width="1.1636" d="M16 2.667v2.667"></path>
<path fill="none" stroke="currentColor" stroke-linejoin="round" stroke-linecap="round" stroke-miterlimit="4" stroke-width="1.1636" d="M10.667 28.001v-14.667h-5.333c-0.736 0-1.333 0.597-1.333 1.333v13.333"></path>
<path fill="none" stroke="currentColor" stroke-linejoin="round" stroke-linecap="round" stroke-miterlimit="4" stroke-width="1.1636" d="M21.333 21.334h3.333"></path>
<path fill="none" stroke="currentColor" stroke-linejoin="round" stroke-linecap="round" stroke-miterlimit="4" stroke-width="1.1636" d="M7.333 17.334h3.333"></path>
<path fill="none" stroke="currentColor" stroke-linejoin="round" stroke-linecap="round" stroke-miterlimit="4" stroke-width="1.1636" d="M7.333 21.334h3.333"></path>
<path fill="none" stroke="currentColor" stroke-linejoin="round" stroke-linecap="round" stroke-miterlimit="4" stroke-width="0.8727" d="M14 17.334h4"></path>
<path fill="none" stroke="currentColor" stroke-linejoin="round" stroke-linecap="round" stroke-miterlimit="4" stroke-width="1.1636" d="M14 21.334h4"></path>
<path fill="none" stroke="currentColor" stroke-linejoin="round" stroke-linecap="round" stroke-miterlimit="4" stroke-width="1.1636" d="M14 17.334h4"></path>
<path fill="none" stroke="currentColor" stroke-linejoin="round" stroke-linecap="round" stroke-miterlimit="4" stroke-width="1.1636" d="M14 13.334h4"></path>
<path fill="none" stroke="currentColor" stroke-linejoin="round" stroke-linecap="round" stroke-miterlimit="4" stroke-width="1.1636" d="M16 26v2"></path>
<path fill="none" stroke="currentColor" stroke-linejoin="round" stroke-linecap="round" stroke-miterlimit="4" stroke-width="1.1636" d="M29.333 28h-26.667"></path>
<path fill="none" stroke="currentColor" stroke-linejoin="round" stroke-linecap="round" stroke-miterlimit="4" stroke-width="1.1636" d="M28 28.001v-9.333c0-0.736-0.597-1.333-1.333-1.333h-5.333v10.667"></path>
</symbol>
<symbol id="i-shield" viewBox="0 0 32 32">
<path fill="none" stroke="currentColor" stroke-linejoin="round" stroke-linecap="round" stroke-miterlimit="4" stroke-width="1.1636" d="M20.425 13.79l-5.531 5.531-3.319-3.319"></path>
<path fill="none" stroke="currentColor" stroke-linejoin="round" stroke-linecap="round" stroke-miterlimit="4" stroke-width="1.1636" d="M25.467 7.895c-3.279-0.259-6.263-1.564-8.617-3.584-0.483-0.413-1.217-0.413-1.699 0-2.355 2.019-5.339 3.325-8.617 3.584-0.683 0.053-1.2 0.637-1.2 1.321v5.773c0 5.823 4.208 11.283 9.971 12.913 0.452 0.128 0.941 0.128 1.393 0 5.761-1.632 9.969-7.089 9.969-12.912v-5.773c0-0.685-0.517-1.269-1.2-1.323z"></path>
</symbol>
<symbol id="i-cement" viewBox="0 0 32 32">
<path fill="none" stroke="currentColor" stroke-linejoin="round" stroke-linecap="round" stroke-miterlimit="4" stroke-width="1.1636" d="M10.666 28c2.209 0 4-1.791 4-4s-1.791-4-4-4c-2.209 0-4 1.791-4 4s1.791 4 4 4z"></path>
<path fill="none" stroke="currentColor" stroke-linejoin="round" stroke-linecap="round" stroke-miterlimit="4" stroke-width="1.1636" d="M6.666 13.333v-1.019c0-0.896 0.249-1.774 0.72-2.536s1.145-1.378 1.946-1.779v0l1.252-1.252c0.448-0.448 0.981-0.804 1.566-1.047s1.214-0.368 1.848-0.368v0c0.634 0 1.262 0.125 1.848 0.368s1.118 0.598 1.566 1.047l1.252 1.252c0.801 0.401 1.475 1.017 1.946 1.779s0.72 1.64 0.72 2.536v1.019"></path>
<path fill="none" stroke="currentColor" stroke-linejoin="round" stroke-linecap="round" stroke-miterlimit="4" stroke-width="1.1636" d="M19.354 23.354l2.76 2.76c0.175 0.175 0.383 0.314 0.612 0.409s0.474 0.144 0.722 0.144c0.5 0 0.98-0.199 1.333-0.552s0.552-0.833 0.552-1.333v-12.687c0-0.439 0.108-0.871 0.316-1.258s0.507-0.717 0.872-0.961l2.813-1.875"></path>
<path fill="none" stroke="currentColor" stroke-linejoin="round" stroke-linecap="round" stroke-miterlimit="4" stroke-width="1.1636" d="M14.667 24h2.967c0.352 0 0.701-0.070 1.027-0.206s0.62-0.335 0.868-0.585l4.981-5.032c0.527-0.532 0.823-1.252 0.823-2.001v0c0-0.373-0.074-0.743-0.216-1.088s-0.352-0.659-0.616-0.923c-0.264-0.264-0.578-0.474-0.923-0.616s-0.715-0.216-1.088-0.216h-16.532c-0.519 0-1.017 0.206-1.384 0.573s-0.573 0.865-0.573 1.384v0c0 0.458 0.161 0.902 0.454 1.253l3.664 4.397"></path>
</symbol>
<symbol id="i-basket" viewBox="0 0 32 32">
<path fill="none" stroke="currentColor" stroke-linejoin="round" stroke-linecap="round" stroke-miterlimit="4" stroke-width="1.1636" d="M10 11.333h1.677l1.335 6.667h6.727l0.928-4.667h-8.589"></path>
<path fill="none" stroke="currentColor" stroke-linejoin="round" stroke-linecap="round" stroke-miterlimit="4" stroke-width="1.1636" d="M10.667 4h-6.667"></path>
<path fill="none" stroke="currentColor" stroke-linejoin="round" stroke-linecap="round" stroke-miterlimit="4" stroke-width="1.1636" d="M4 8h4"></path>
<path fill="none" stroke="currentColor" stroke-linejoin="round" stroke-linecap="round" stroke-miterlimit="4" stroke-width="1.1636" d="M16 4c2.373 0 4.693 0.704 6.667 2.022s3.511 3.193 4.42 5.385c0.908 2.193 1.146 4.606 0.683 6.933s-1.606 4.466-3.284 6.144c-1.678 1.678-3.816 2.821-6.144 3.284s-4.741 0.225-6.933-0.683c-2.193-0.908-4.067-2.446-5.385-4.42s-2.022-4.293-2.022-6.667c0.004-0.898 0.11-1.793 0.318-2.667"></path>
<path fill="currentColor" d="M20 21.266c0 0.552-0.448 1-1 1s-1-0.448-1-1c0-0.552 0.448-1 1-1s1 0.448 1 1z"></path>
<path fill="currentColor" d="M14.666 21.266c0 0.552-0.448 1-1 1s-1-0.448-1-1c0-0.552 0.448-1 1-1s1 0.448 1 1z"></path>
</symbol>
<symbol id="i-bag" viewBox="0 0 32 32">
<path fill="none" stroke="currentColor" stroke-linejoin="round" stroke-linecap="round" stroke-miterlimit="4" stroke-width="1.1636" d="M20 8h-10.667c-0.736 0-1.333 0.597-1.333 1.333v1.333c0 0.736 0.597 1.333 1.333 1.333h10.667c0.736 0 1.333-0.597 1.333-1.333v-1.333c0-0.736-0.597-1.333-1.333-1.333z"></path>
<path fill="none" stroke="currentColor" stroke-linejoin="round" stroke-linecap="round" stroke-miterlimit="4" stroke-width="1.1636" d="M9.443 12l-3.463 3.958c-1.046 1.195-1.712 2.675-1.914 4.25s0.069 3.175 0.78 4.596v0c0.48 0.96 1.218 1.768 2.132 2.333s1.966 0.864 3.040 0.864h8.651"></path>
<path fill="none" stroke="currentColor" stroke-linejoin="round" stroke-linecap="round" stroke-miterlimit="4" stroke-width="1.1636" d="M9.878 8l-1.061-2.055c-0.105-0.203-0.156-0.43-0.148-0.659s0.075-0.451 0.194-0.647 0.286-0.357 0.486-0.469c0.199-0.112 0.424-0.171 0.653-0.171h9.33c0.229 0 0.454 0.059 0.653 0.171s0.367 0.274 0.486 0.469 0.186 0.418 0.194 0.647c0.008 0.229-0.043 0.455-0.148 0.659l-1.061 2.055"></path>
<path fill="none" stroke="currentColor" stroke-linejoin="round" stroke-linecap="round" stroke-miterlimit="4" stroke-width="1.1636" d="M22.667 29.333c3.682 0 6.667-2.985 6.667-6.667s-2.985-6.667-6.667-6.667c-3.682 0-6.667 2.985-6.667 6.667s2.985 6.667 6.667 6.667z"></path>
<path fill="none" stroke="currentColor" stroke-linejoin="round" stroke-linecap="round" stroke-miterlimit="4" stroke-width="1.1636" d="M24.908 21.347l-2.8 2.798-1.683-1.678"></path>
<path fill="none" stroke="currentColor" stroke-linejoin="round" stroke-linecap="round" stroke-miterlimit="4" stroke-width="1.1636" d="M19.822 12l3.752 4.061"></path>
</symbol>
<symbol id="i-cursor" viewBox="0 0 32 32">
<path fill="none" stroke="currentColor" stroke-linejoin="round" stroke-linecap="round" stroke-miterlimit="4" stroke-width="1.1636" d="M6.666 12c0-5.155 4.179-9.333 9.333-9.333s9.333 4.179 9.333 9.333"></path>
<path fill="none" stroke="currentColor" stroke-linejoin="round" stroke-linecap="round" stroke-miterlimit="4" stroke-width="1.1636" d="M10.666 12c0-2.945 2.388-5.333 5.333-5.333s5.333 2.388 5.333 5.333"></path>
<path fill="none" stroke="currentColor" stroke-linejoin="round" stroke-linecap="round" stroke-miterlimit="4" stroke-width="1.1636" d="M18.072 17.334v-4.667c0-1.104-0.896-2-2-2s-2 0.896-2 2v8.667l-1.201-1.201c-0.809-0.809-2.121-0.809-2.931 0-0.699 0.699-0.807 1.793-0.259 2.615l3.599 5.399c0.495 0.743 1.328 1.188 2.22 1.188h7.051c1.345 0 2.479-1.001 2.647-2.336l0.723-5.783c0.177-1.423-0.801-2.732-2.216-2.963l-5.632-0.919z"></path>
</symbol>
<symbol id="i-list" viewBox="0 0 32 32">
<path fill="none" stroke="currentColor" stroke-linejoin="round" stroke-linecap="round" stroke-miterlimit="4" stroke-width="1.1636" d="M28 13.333v-3.333c0-3.32-2.693-6-6-6h-12.013c-3.32 0-6 2.68-6 6s0 0 0 0v12c0 3.307 2.68 5.987 6 5.987h3.32"></path>
<path fill="none" stroke="currentColor" stroke-linejoin="round" stroke-linecap="round" stroke-miterlimit="4" stroke-width="1.1636" d="M14.667 16h2.667"></path>
<path fill="none" stroke="currentColor" stroke-linejoin="round" stroke-linecap="round" stroke-miterlimit="4" stroke-width="1.1636" d="M14.667 10.667h8"></path>
<path fill="none" stroke="currentColor" stroke-linejoin="round" stroke-linecap="round" stroke-miterlimit="4" stroke-width="1.1636" d="M9.334 16.334h-0.013c-0.187 0-0.333-0.147-0.333-0.333-0.013-0.013-0.013-0.013-0.013-0.013v-0.013c-0.013-0.187 0.147-0.347 0.32-0.347 0.173-0.013 0.333 0.147 0.333 0.32s-0.16 0.333-0.333 0.333"></path>
<path fill="none" stroke="currentColor" stroke-linejoin="round" stroke-linecap="round" stroke-miterlimit="4" stroke-width="1.1636" d="M9.334 10.999h-0.013c-0.187 0-0.333-0.147-0.333-0.333-0.013-0.013-0.013-0.013-0.013-0.013v-0.013c-0.013-0.187 0.147-0.347 0.32-0.347 0.173-0.013 0.333 0.147 0.333 0.32s-0.16 0.333-0.333 0.333"></path>
<path fill="none" stroke="currentColor" stroke-linejoin="round" stroke-linecap="round" stroke-miterlimit="4" stroke-width="1.1636" d="M18.587 20.793v5.387c-0.013 0.987 0.8 1.8 1.787 1.8l5.987-0.001c0.987 0 1.8-0.813 1.8-1.8v-5.333"></path>
<path fill="none" stroke="currentColor" stroke-linejoin="round" stroke-linecap="round" stroke-miterlimit="4" stroke-width="1.1636" d="M29.334 21.786l-5.253-4.213c-0.44-0.36-1.067-0.36-1.507-0.013l-5.253 4.2"></path>
</symbol>
<symbol id="i-pill" viewBox="0 0 32 32">
<path fill="none" stroke="currentColor" stroke-linejoin="round" stroke-linecap="round" stroke-miterlimit="4" stroke-width="1.1636" d="M21.185 10.667h-10.371c-1.555 0-2.815-1.26-2.815-2.815v-1.037c0-1.555 1.26-2.815 2.815-2.815h10.371c1.555 0 2.815 1.26 2.815 2.815v1.037c0 1.555-1.26 2.815-2.815 2.815z"></path>
<path fill="none" stroke="currentColor" stroke-linejoin="round" stroke-linecap="round" stroke-miterlimit="4" stroke-width="1.1636" d="M21.11 28h-10.221c-2.332 0-4.223-1.891-4.223-4.223v-8.889c0-2.331 1.891-4.221 4.223-4.221h10.223c2.331 0 4.221 1.891 4.221 4.223v8.889c0 2.331-1.891 4.221-4.223 4.221v0z"></path>
<path fill="none" stroke="currentColor" stroke-linejoin="round" stroke-linecap="round" stroke-miterlimit="4" stroke-width="1.1636" d="M16 16.747v5.627"></path>
<path fill="none" stroke="currentColor" stroke-linejoin="round" stroke-linecap="round" stroke-miterlimit="4" stroke-width="1.1636" d="M18.813 19.56h-5.627"></path>
<path fill="none" stroke="currentColor" stroke-linejoin="round" stroke-linecap="round" stroke-miterlimit="4" stroke-width="1.1636" d="M16 7.067v0.68"></path>
<path fill="none" stroke="currentColor" stroke-linejoin="round" stroke-linecap="round" stroke-miterlimit="4" stroke-width="1.1636" d="M12.333 7.067v0.68"></path>
<path fill="none" stroke="currentColor" stroke-linejoin="round" stroke-linecap="round" stroke-miterlimit="4" stroke-width="1.1636" d="M19.666 7.067v0.68"></path>
</symbol>
</defs>
</svg>
