<svg aria-hidden="true" style="position: absolute; width: 0; height: 0; overflow: hidden;" version="1.1" xmlns="http://www.w3.org/2000/svg" xmlns:xlink="http://www.w3.org/1999/xlink">
<defs>
<symbol id="i-lock" viewBox="0 0 32 32">
<path fill="none" stroke="currentColor" stroke-linejoin="round" stroke-linecap="round" stroke-miterlimit="4" stroke-width="1.3333" d="M18.296 15.333v-1.703c0-1.205-1.028-2.297-2.297-2.297s-2.297 1.028-2.297 2.297v1.703"></path>
<path fill="none" stroke="currentColor" stroke-linejoin="round" stroke-linecap="round" stroke-miterlimit="4" stroke-width="1.3333" d="M18.701 20.667h-5.403c-0.717 0-1.299-0.581-1.299-1.299v-2.736c0-0.717 0.581-1.299 1.299-1.299h5.403c0.717 0 1.299 0.581 1.299 1.299v2.736c0 0.717-0.581 1.299-1.299 1.299z"></path>
<path fill="none" stroke="currentColor" stroke-linejoin="round" stroke-linecap="round" stroke-miterlimit="4" stroke-width="1.3333" d="M4 18.509v-5.017c0-2.136 1.136-4.111 2.981-5.185l6-3.492c1.865-1.085 4.171-1.085 6.036 0l6 3.492c1.847 1.073 2.983 3.048 2.983 5.184v5.017c0 2.136-1.136 4.111-2.981 5.185l-6 3.492c-1.865 1.085-4.171 1.085-6.036 0l-6-3.492c-1.847-1.073-2.983-3.048-2.983-5.184v0z"></path>
</symbol>
<symbol id="i-notebook" viewBox="0 0 32 32">
<path fill="none" stroke="currentColor" stroke-linejoin="round" stroke-linecap="round" stroke-miterlimit="4" stroke-width="1.3333" d="M17.333 21.333h5.333"></path>
<path fill="none" stroke="currentColor" stroke-linejoin="round" stroke-linecap="round" stroke-miterlimit="4" stroke-width="1.3333" d="M9.333 20.968l1.225 1.104 2.468-2.221"></path>
<path fill="none" stroke="currentColor" stroke-linejoin="round" stroke-linecap="round" stroke-miterlimit="4" stroke-width="1.3333" d="M17.333 14.667h5.333"></path>
<path fill="none" stroke="currentColor" stroke-linejoin="round" stroke-linecap="round" stroke-miterlimit="4" stroke-width="1.3333" d="M9.333 14.301l1.225 1.104 2.467-2.221"></path>
<path fill="none" stroke="currentColor" stroke-linejoin="round" stroke-linecap="round" stroke-miterlimit="4" stroke-width="1.3333" d="M25.333 5.333h-18.667c-1.473 0-2.667 1.193-2.667 2.667v17.333c0 1.473 1.193 2.667 2.667 2.667h18.667c1.473 0 2.667-1.193 2.667-2.667v-17.333c0-1.473-1.193-2.667-2.667-2.667z"></path>
<path fill="none" stroke="currentColor" stroke-linejoin="round" stroke-linecap="round" stroke-miterlimit="4" stroke-width="1.3333" d="M21.333 4v4"></path>
<path fill="none" stroke="currentColor" stroke-linejoin="round" stroke-linecap="round" stroke-miterlimit="4" stroke-width="1.3333" d="M16 4v4"></path>
<path fill="none" stroke="currentColor" stroke-linejoin="round" stroke-linecap="round" stroke-miterlimit="4" stroke-width="1.3333" d="M10.667 4v4"></path>
</symbol>
<symbol id="i-results" viewBox="0 0 32 32">
<path fill="none" stroke="currentColor" stroke-linejoin="round" stroke-linecap="round" stroke-miterlimit="4" stroke-width="1.3333" d="M25.306 9.307l2.693 2.693"></path>
<path fill="none" stroke="currentColor" stroke-linejoin="round" stroke-linecap="round" stroke-miterlimit="4" stroke-width="1.3333" d="M25.306 3.806c1.519 1.519 1.519 3.981 0 5.5s-3.981 1.519-5.5 0c-1.519-1.519-1.519-3.981 0-5.5s3.981-1.519 5.5 0"></path>
<path fill="none" stroke="currentColor" stroke-linejoin="round" stroke-linecap="round" stroke-miterlimit="4" stroke-width="1.3333" d="M14.667 10h-9.333c-0.736 0-1.333-0.597-1.333-1.333v-3.333c0-0.736 0.597-1.333 1.333-1.333h9.333"></path>
<path fill="none" stroke="currentColor" stroke-linejoin="round" stroke-linecap="round" stroke-miterlimit="4" stroke-width="1.3333" d="M7 19.333h-2c-0.552 0-1-0.448-1-1v-2c0-0.552 0.448-1 1-1h2c0.552 0 1 0.448 1 1v2c0 0.552-0.448 1-1 1z"></path>
<path fill="none" stroke="currentColor" stroke-linejoin="round" stroke-linecap="round" stroke-miterlimit="4" stroke-width="1.3333" d="M12.295 17.333h15.704"></path>
<path fill="none" stroke="currentColor" stroke-linejoin="round" stroke-linecap="round" stroke-miterlimit="4" stroke-width="1.3333" d="M7 28h-2c-0.552 0-1-0.448-1-1v-2c0-0.552 0.448-1 1-1h2c0.552 0 1 0.448 1 1v2c0 0.552-0.448 1-1 1z"></path>
<path fill="none" stroke="currentColor" stroke-linejoin="round" stroke-linecap="round" stroke-miterlimit="4" stroke-width="1.3333" d="M12.295 26h15.704"></path>
</symbol>
<symbol id="i-devices" viewBox="0 0 32 32">
<path fill="none" stroke="currentColor" stroke-linejoin="round" stroke-linecap="round" stroke-miterlimit="4" stroke-width="1.3333" d="M26.667 14v-7.333c0-1.473-1.193-2.667-2.667-2.667h-17.333c-1.473 0-2.667 1.193-2.667 2.667v13.333"></path>
<path fill="none" stroke="currentColor" stroke-linejoin="round" stroke-linecap="round" stroke-miterlimit="4" stroke-width="1.3333" d="M20 24h-16c-0.736 0-1.333-0.597-1.333-1.333v-1.333c0-0.736 0.597-1.333 1.333-1.333h16"></path>
<path fill="none" stroke="currentColor" stroke-linejoin="round" stroke-linecap="round" stroke-miterlimit="4" stroke-width="1.3333" d="M28 28h-6.667c-0.736 0-1.333-0.597-1.333-1.333v-11.333c0-0.736 0.597-1.333 1.333-1.333h6.667c0.736 0 1.333 0.597 1.333 1.333v11.333c0 0.736-0.597 1.333-1.333 1.333z"></path>
<path fill="none" stroke="currentColor" stroke-linejoin="round" stroke-linecap="round" stroke-miterlimit="4" stroke-width="1.3333" d="M20 24h9.333"></path>
</symbol>
<symbol id="i-circle" viewBox="0 0 32 32">
<path fill="none" stroke="currentColor" stroke-linejoin="round" stroke-linecap="round" stroke-miterlimit="4" stroke-width="1.3333" d="M15.903 4v0c6.627 0 12 5.373 12 12s-5.373 12-12 12"></path>
<path fill="none" stroke="currentColor" stroke-linejoin="round" stroke-linecap="round" stroke-miterlimit="4" stroke-width="1.3333" d="M11.805 27.265v0c-1.315-0.476-2.537-1.179-3.611-2.076"></path>
<path fill="none" stroke="currentColor" stroke-linejoin="round" stroke-linecap="round" stroke-miterlimit="4" stroke-width="1.3333" d="M8.194 6.811v0c1.073-0.898 2.295-1.601 3.611-2.076"></path>
<path fill="none" stroke="currentColor" stroke-linejoin="round" stroke-linecap="round" stroke-miterlimit="4" stroke-width="1.3333" d="M4.097 13.917v0c0.241-1.379 0.722-2.705 1.423-3.917"></path>
<path fill="none" stroke="currentColor" stroke-linejoin="round" stroke-linecap="round" stroke-miterlimit="4" stroke-width="1.3333" d="M4.097 18.081v0c0.241 1.379 0.722 2.706 1.423 3.919"></path>
<path fill="none" stroke="currentColor" stroke-linejoin="round" stroke-linecap="round" stroke-miterlimit="4" stroke-width="1.3333" d="M21.333 21.333v0c-0.155-0.39-0.396-0.741-0.704-1.025v0c-0.52-0.483-1.203-0.752-1.912-0.752h-5.433c-0.71 0-1.393 0.269-1.913 0.752v0c-0.308 0.285-0.548 0.636-0.704 1.025"></path>
<path fill="none" stroke="currentColor" stroke-linejoin="round" stroke-linecap="round" stroke-miterlimit="4" stroke-width="1.3333" d="M16 16.667c1.657 0 3-1.343 3-3s-1.343-3-3-3c-1.657 0-3 1.343-3 3s1.343 3 3 3z"></path>
</symbol>
<symbol id="i-site" viewBox="0 0 32 32">
<path fill="none" stroke="currentColor" stroke-linejoin="round" stroke-linecap="round" stroke-miterlimit="4" stroke-width="1.3333" d="M26.667 28h-21.333c-1.473 0-2.667-1.193-2.667-2.667v-18.667c0-1.473 1.193-2.667 2.667-2.667h21.333c1.473 0 2.667 1.193 2.667 2.667v18.667c0 1.473-1.193 2.667-2.667 2.667z"></path>
<path fill="none" stroke="currentColor" stroke-linejoin="round" stroke-linecap="round" stroke-miterlimit="4" stroke-width="1.3333" d="M2.667 10.667h26.667"></path>
<path fill="none" stroke="currentColor" stroke-linejoin="round" stroke-linecap="round" stroke-miterlimit="4" stroke-width="1.3333" d="M13.333 18.667h-4c-0.736 0-1.333-0.597-1.333-1.333v-1.333c0-0.736 0.597-1.333 1.333-1.333h4c0.736 0 1.333 0.597 1.333 1.333v1.333c0 0.736-0.597 1.333-1.333 1.333z"></path>
<path fill="none" stroke="currentColor" stroke-linejoin="round" stroke-linecap="round" stroke-miterlimit="4" stroke-width="1.3333" d="M18.667 14.667h5.333"></path>
<path fill="none" stroke="currentColor" stroke-linejoin="round" stroke-linecap="round" stroke-miterlimit="4" stroke-width="1.3333" d="M18.667 18.667h4"></path>
<path fill="none" stroke="currentColor" stroke-linejoin="round" stroke-linecap="round" stroke-miterlimit="4" stroke-width="1.3333" d="M24 28v-4c0-0.736-0.597-1.333-1.333-1.333h-13.333c-0.736 0-1.333 0.597-1.333 1.333v4"></path>
<path d="M7.556 7.333c0 0.368-0.298 0.667-0.667 0.667s-0.667-0.298-0.667-0.667c0-0.368 0.298-0.667 0.667-0.667s0.667 0.298 0.667 0.667z"></path>
<path d="M11.111 7.333c0 0.368-0.298 0.667-0.667 0.667s-0.667-0.298-0.667-0.667c0-0.368 0.298-0.667 0.667-0.667s0.667 0.298 0.667 0.667z"></path>
<path d="M14.667 7.333c0 0.368-0.298 0.667-0.667 0.667s-0.667-0.298-0.667-0.667c0-0.368 0.298-0.667 0.667-0.667s0.667 0.298 0.667 0.667z"></path>
</symbol>
<symbol id="i-star" viewBox="0 0 32 32">
<path fill="none" stroke="currentColor" stroke-linejoin="round" stroke-linecap="round" stroke-miterlimit="4" stroke-width="1.3333" d="M15.997 19.845l2.675 1.405c0.52 0.273 1.129-0.168 1.029-0.748l-0.511-2.977 2.164-2.107c0.421-0.411 0.189-1.127-0.393-1.211l-2.989-0.435-1.337-2.711c-0.26-0.528-1.012-0.528-1.273 0l-1.336 2.711-2.989 0.435c-0.583 0.084-0.815 0.8-0.393 1.211l2.164 2.107-0.511 2.977c-0.1 0.58 0.509 1.021 1.029 0.748l2.672-1.405z"></path>
<path fill="none" stroke="currentColor" stroke-linejoin="round" stroke-linecap="round" stroke-miterlimit="4" stroke-width="1.3333" d="M28.668 16h-1.467"></path>
<path fill="none" stroke="currentColor" stroke-linejoin="round" stroke-linecap="round" stroke-miterlimit="4" stroke-width="1.3333" d="M4.8 16h-1.467"></path>
<path fill="none" stroke="currentColor" stroke-linejoin="round" stroke-linecap="round" stroke-miterlimit="4" stroke-width="1.3333" d="M25.146 6.853l-1.4 1.4"></path>
<path fill="none" stroke="currentColor" stroke-linejoin="round" stroke-linecap="round" stroke-miterlimit="4" stroke-width="1.3333" d="M6.878 25.187l1.413-1.413"></path>
<path fill="none" stroke="currentColor" stroke-linejoin="round" stroke-linecap="round" stroke-miterlimit="4" stroke-width="1.3333" d="M6.854 6.88l1.4 1.413"></path>
<path fill="none" stroke="currentColor" stroke-linejoin="round" stroke-linecap="round" stroke-miterlimit="4" stroke-width="1.3333" d="M25.188 25.147l-1.413-1.4"></path>
<path fill="none" stroke="currentColor" stroke-linejoin="round" stroke-linecap="round" stroke-miterlimit="4" stroke-width="1.3333" d="M16 27.253v1.413"></path>
<path fill="none" stroke="currentColor" stroke-linejoin="round" stroke-linecap="round" stroke-miterlimit="4" stroke-width="1.3333" d="M16 3.333v1.413"></path>
</symbol>
<symbol id="i-suitcase" viewBox="0 0 32 32">
<path fill="none" stroke="currentColor" stroke-linejoin="round" stroke-linecap="round" stroke-miterlimit="4" stroke-width="1.3" d="M25.333 28h-18.667c-1.473 0-2.667-1.194-2.667-2.667v-12c0-1.473 1.194-2.667 2.667-2.667h18.667c1.473 0 2.667 1.194 2.667 2.667v12c0 1.473-1.194 2.667-2.667 2.667 0 0 0 0 0 0v0z"></path>
<path fill="none" stroke="currentColor" stroke-linejoin="round" stroke-linecap="round" stroke-miterlimit="4" stroke-width="1.3" d="M21.333 28v-20c0-1.473-1.194-2.667-2.667-2.667h-5.333c-1.473 0-2.667 1.194-2.667 2.667v0 20"></path>
</symbol>
</defs>
</svg>
