<svg aria-hidden="true" style="position: absolute; width: 0; height: 0; overflow: hidden;" version="1.1" xmlns="http://www.w3.org/2000/svg" xmlns:xlink="http://www.w3.org/1999/xlink">
<defs>
<symbol id="i-certificate" viewBox="0 0 32 32">
<path fill="none" stroke="currentColor" stroke-linejoin="round" stroke-linecap="round" stroke-miterlimit="4" stroke-width="1.3333" d="M24.741 21.63l-2.593 2.593-1.556-1.556"></path>
<path fill="none" stroke="currentColor" stroke-linejoin="round" stroke-linecap="round" stroke-miterlimit="4" stroke-width="1.3333" d="M12 24h-4c-2.209 0-4-1.791-4-4v-12c0-2.209 1.791-4 4-4h16c2.209 0 4 1.791 4 4v5.333"></path>
<path fill="none" stroke="currentColor" stroke-linejoin="round" stroke-linecap="round" stroke-miterlimit="4" stroke-width="1.3333" d="M9.333 15.333h4"></path>
<path fill="none" stroke="currentColor" stroke-linejoin="round" stroke-linecap="round" stroke-miterlimit="4" stroke-width="1.3333" d="M9.333 9.333h12"></path>
<path fill="none" stroke="currentColor" stroke-linejoin="round" stroke-linecap="round" stroke-miterlimit="4" stroke-width="1.3333" d="M16.367 23.753l0.885 1.159 0.192 1.441c0.107 0.8 0.735 1.429 1.535 1.536l1.445 0.193 1.157 0.885c0.64 0.489 1.529 0.489 2.169 0l1.157-0.885 1.443-0.192c0.8-0.107 1.429-0.735 1.536-1.535l0.193-1.445c0 0.001 0.448-0.585 0.885-1.157 0.489-0.64 0.489-1.529 0-2.169l-0.885-1.159-0.192-1.441c-0.107-0.8-0.735-1.429-1.535-1.536l-1.445-0.193-1.157-0.885c-0.64-0.489-1.529-0.489-2.169 0l-1.157 0.885-1.443 0.192c-0.8 0.107-1.429 0.735-1.536 1.535l-0.193 1.445c0-0.001-0.448 0.585-0.885 1.157-0.489 0.64-0.489 1.528 0 2.169v0z"></path>
</symbol>
<symbol id="i-chart" viewBox="0 0 32 32">
<path fill="none" stroke="currentColor" stroke-linejoin="round" stroke-linecap="round" stroke-miterlimit="4" stroke-width="1.3333" d="M26.666 26.666l-4.267-4.267"></path>
<path fill="none" stroke="currentColor" stroke-linejoin="round" stroke-linecap="round" stroke-miterlimit="4" stroke-width="1.3333" d="M5.333 18.667l8-5.275 4 4"></path>
<path fill="none" stroke="currentColor" stroke-linejoin="round" stroke-linecap="round" stroke-miterlimit="4" stroke-width="1.3333" d="M17.333 17.393l8-5.275"></path>
<path fill="none" stroke="currentColor" stroke-linejoin="round" stroke-linecap="round" stroke-miterlimit="4" stroke-width="1.3333" d="M5.366 14.666v0c0.358-5.502 5.109-9.671 10.61-9.313 2.912 0.19 5.595 1.644 7.343 3.979"></path>
<path fill="none" stroke="currentColor" stroke-linejoin="round" stroke-linecap="round" stroke-miterlimit="4" stroke-width="1.3333" d="M25.301 16v0c-0.358 5.502-5.109 9.671-10.61 9.313-2.912-0.19-5.595-1.644-7.343-3.979"></path>
</symbol>
<symbol id="i-checkmark" viewBox="0 0 32 32">
<path fill="none" stroke="currentColor" stroke-linejoin="round" stroke-linecap="round" stroke-miterlimit="4" stroke-width="1.3333" d="M26.953 17.619c0.665-1.284 1.048-2.739 1.048-4.285 0-5.155-4.179-9.333-9.333-9.333-1.547 0-3.001 0.383-4.285 1.048"></path>
<path fill="none" stroke="currentColor" stroke-linejoin="round" stroke-linecap="round" stroke-miterlimit="4" stroke-width="1.3333" d="M13.333 28c-5.156 0-9.333-4.18-9.333-9.333s4.177-9.333 9.333-9.333c5.153 0 9.333 4.18 9.333 9.333s-4.18 9.333-9.333 9.333z"></path>
<path fill="none" stroke="currentColor" stroke-linejoin="round" stroke-linecap="round" stroke-miterlimit="4" stroke-width="1.3333" d="M17.482 16.594l-5.185 5.185-3.109-3.112"></path>
</symbol>
<symbol id="i-government" viewBox="0 0 32 32">
<path fill="none" stroke="currentColor" stroke-linejoin="round" stroke-linecap="round" stroke-miterlimit="4" stroke-width="1.3333" d="M10.667 18.667v9.333"></path>
<path fill="none" stroke="currentColor" stroke-linejoin="round" stroke-linecap="round" stroke-miterlimit="4" stroke-width="1.3333" d="M16 18.667v9.333"></path>
<path fill="none" stroke="currentColor" stroke-linejoin="round" stroke-linecap="round" stroke-miterlimit="4" stroke-width="1.3333" d="M21.333 18.667v9.333"></path>
<path fill="none" stroke="currentColor" stroke-linejoin="round" stroke-linecap="round" stroke-miterlimit="4" stroke-width="1.3333" d="M29.333 28h-26.667"></path>
<path fill="none" stroke="currentColor" stroke-linejoin="round" stroke-linecap="round" stroke-miterlimit="4" stroke-width="1.3333" d="M16 9.333v-6c0-0.368 0.299-0.667 0.667-0.667h4c0.368 0 0.667 0.298 0.667 0.667v1.891c0 0.368-0.299 0.667-0.667 0.667h-4.667"></path>
<path fill="none" stroke="currentColor" stroke-linejoin="round" stroke-linecap="round" stroke-miterlimit="4" stroke-width="1.3333" d="M10.667 13.333v-2.114c0-0.354 0.14-0.693 0.39-0.943l0.552-0.552c0.25-0.25 0.589-0.391 0.943-0.391h6.896c0.354 0 0.693 0.141 0.943 0.391l0.552 0.552c0.25 0.25 0.391 0.589 0.391 0.943v2.115"></path>
<path fill="none" stroke="currentColor" stroke-linejoin="round" stroke-linecap="round" stroke-miterlimit="4" stroke-width="1.3333" d="M5.333 18.667h21.333"></path>
<path fill="none" stroke="currentColor" stroke-linejoin="round" stroke-linecap="round" stroke-miterlimit="4" stroke-width="1.3333" d="M26.667 28v-12.781c0-0.354-0.14-0.693-0.39-0.943l-0.552-0.552c-0.25-0.25-0.589-0.391-0.943-0.391h-17.563c-0.354 0-0.693 0.141-0.943 0.391l-0.552 0.552c-0.25 0.25-0.391 0.589-0.391 0.943v12.781"></path>
</symbol>
<symbol id="i-handshake" viewBox="0 0 32 32">
<path fill="none" stroke="currentColor" stroke-linejoin="round" stroke-linecap="round" stroke-miterlimit="4" stroke-width="1.3333" d="M4 21.721h3.112c0.471 0 0.924-0.187 1.257-0.52v0c0.333-0.334 0.52-0.786 0.52-1.257v-7.112c0-0.471-0.187-0.924-0.52-1.257v0c-0.334-0.333-0.786-0.52-1.257-0.52h-3.112"></path>
<path fill="none" stroke="currentColor" stroke-linejoin="round" stroke-linecap="round" stroke-miterlimit="4" stroke-width="1.3333" d="M28.001 11.056h-3.111c-0.472-0-0.924 0.187-1.257 0.52v0c-0.333 0.334-0.52 0.786-0.52 1.257v7.112c-0 0.471 0.187 0.924 0.52 1.257v0c0.334 0.333 0.786 0.52 1.257 0.52h3.111"></path>
<path fill="none" stroke="currentColor" stroke-linejoin="round" stroke-linecap="round" stroke-miterlimit="4" stroke-width="1.3333" d="M23.139 20.25h-1.147c-0.381-0-0.758 0.081-1.105 0.24l-5.609 2.555"></path>
<path fill="none" stroke="currentColor" stroke-linejoin="round" stroke-linecap="round" stroke-miterlimit="4" stroke-width="1.3333" d="M14.194 12.278v0c-0.675-0.4-1.493-0.48-2.233-0.219l-3.067 1.105"></path>
<path fill="none" stroke="currentColor" stroke-linejoin="round" stroke-linecap="round" stroke-miterlimit="4" stroke-width="1.3333" d="M23.326 11.97l-3.835-1.688c-0.822-0.362-1.77-0.286-2.524 0.203l-3.48 2.255c-0.931 0.603-1.196 1.847-0.593 2.777 0.094 0.146 0.207 0.278 0.336 0.395v0c0.599 0.542 1.465 0.673 2.197 0.332l2.075-0.968"></path>
<path fill="none" stroke="currentColor" stroke-linejoin="round" stroke-linecap="round" stroke-miterlimit="4" stroke-width="1.3333" d="M17.502 15.273l1.053 0.956c1.091 0.989 1.175 2.675 0.186 3.767-0.056 0.061-0.114 0.12-0.175 0.176l-2.689 2.461c-1.015 0.929-2.571 0.933-3.591 0.009l-1.848-1.676c-0.439-0.39-0.994-0.624-1.58-0.667"></path>
<path fill="none" stroke="currentColor" stroke-linejoin="round" stroke-linecap="round" stroke-miterlimit="4" stroke-width="1.3333" d="M25.055 4h-18.109c-1.627 0-2.946 1.319-2.946 2.946v18.109c0 1.627 1.319 2.945 2.946 2.945h18.109c1.627 0 2.945-1.319 2.945-2.945v-18.109c0-1.627-1.319-2.946-2.945-2.946z"></path>
</symbol>
<symbol id="i-leaf" viewBox="0 0 32 32">
<path fill="none" stroke="currentColor" stroke-linejoin="round" stroke-linecap="round" stroke-miterlimit="4" stroke-width="1.3333" d="M25.333 14.667v-4.229c0-0.707-0.281-1.385-0.781-1.885l-3.771-3.771c-0.5-0.5-1.178-0.781-1.885-0.781h-9.563c-1.473 0-2.667 1.194-2.667 2.667v18.667c0 1.473 1.194 2.667 2.667 2.667h2.667"></path>
<path fill="none" stroke="currentColor" stroke-linejoin="round" stroke-linecap="round" stroke-miterlimit="4" stroke-width="1.3333" d="M25.333 10.667h-5.333c-0.736 0-1.333-0.597-1.333-1.333v-5.333"></path>
<path fill="none" stroke="currentColor" stroke-linejoin="round" stroke-linecap="round" stroke-miterlimit="4" stroke-width="1.3333" d="M22.161 18.317v0c-2.674 0-4.841 2.168-4.841 4.841s2.168 4.841 4.841 4.841c3.944 0 4.912-4.843 7.172-6.133v0c-1.685-2.263-4.351-3.582-7.172-3.549v0z"></path>
<path fill="none" stroke="currentColor" stroke-linejoin="round" stroke-linecap="round" stroke-miterlimit="4" stroke-width="1.3333" d="M22.746 22.632v0c-2.707 0.453-5.093 2.038-6.56 4.359"></path>
</symbol>
<symbol id="i-money" viewBox="0 0 32 32">
<path fill="none" stroke="currentColor" stroke-linejoin="round" stroke-linecap="round" stroke-miterlimit="4" stroke-width="1.3333" d="M20 8h-10.667c-0.736 0-1.333 0.597-1.333 1.333v1.333c0 0.736 0.597 1.333 1.333 1.333h10.667c0.736 0 1.333-0.597 1.333-1.333v-1.333c0-0.736-0.597-1.333-1.333-1.333z"></path>
<path fill="none" stroke="currentColor" stroke-linejoin="round" stroke-linecap="round" stroke-miterlimit="4" stroke-width="1.3333" d="M9.443 12l-3.463 3.958c-1.046 1.195-1.712 2.675-1.914 4.25s0.069 3.175 0.78 4.596v0c0.48 0.96 1.218 1.768 2.132 2.333s1.966 0.864 3.040 0.864h8.651"></path>
<path fill="none" stroke="currentColor" stroke-linejoin="round" stroke-linecap="round" stroke-miterlimit="4" stroke-width="1.3333" d="M9.878 8l-1.061-2.055c-0.105-0.203-0.156-0.43-0.148-0.659s0.075-0.451 0.194-0.647c0.119-0.195 0.286-0.357 0.486-0.469s0.424-0.171 0.653-0.171h9.33c0.229 0 0.454 0.059 0.653 0.171s0.367 0.274 0.486 0.469 0.186 0.418 0.194 0.647c0.008 0.229-0.043 0.455-0.148 0.659l-1.061 2.055"></path>
<path fill="none" stroke="currentColor" stroke-linejoin="round" stroke-linecap="round" stroke-miterlimit="4" stroke-width="1.3333" d="M22.667 29.333c3.682 0 6.667-2.985 6.667-6.667s-2.985-6.667-6.667-6.667c-3.682 0-6.667 2.985-6.667 6.667s2.985 6.667 6.667 6.667z"></path>
<path fill="none" stroke="currentColor" stroke-linejoin="round" stroke-linecap="round" stroke-miterlimit="4" stroke-width="1.3333" d="M24.909 21.347l-2.8 2.798-1.683-1.678"></path>
<path fill="none" stroke="currentColor" stroke-linejoin="round" stroke-linecap="round" stroke-miterlimit="4" stroke-width="1.3333" d="M19.821 12l3.752 4.061"></path>
</symbol>
<symbol id="i-msg" viewBox="0 0 32 32">
<path fill="none" stroke="currentColor" stroke-linejoin="round" stroke-linecap="round" stroke-miterlimit="4" stroke-width="1.3333" d="M16.107 15.546l-0.001-0.001c0.053 0.053 0.053 0.16-0.013 0.227-0.067 0.053-0.173 0.053-0.24-0.013s-0.067-0.173-0.001-0.24v-0.013c0.053-0.067 0.16-0.067 0.227-0.013"></path>
<path fill="none" stroke="currentColor" stroke-linejoin="round" stroke-linecap="round" stroke-miterlimit="4" stroke-width="1.3333" d="M15.999 5.333c-6.627 0-12 4.467-12 9.987l-0.013-0.013c0.093 3.32 1.933 6.36 4.827 7.987v-0.013c-0.293 0.773-0.693 1.52-1.2 2.187v-0.013c-0.373 0.52-0.24 1.24 0.293 1.6 0.28 0.187 0.64 0.253 0.973 0.147v-0.013c1.6-0.48 3.107-1.213 4.453-2.2 0.853 0.16 1.733 0.24 2.613 0.227 6.627 0 12-4.48 12-10s-5.32-9.88-11.947-9.88z"></path>
<path fill="none" stroke="currentColor" stroke-linejoin="round" stroke-linecap="round" stroke-miterlimit="4" stroke-width="1.3333" d="M21.44 15.546l-0.001-0.001c0.053 0.053 0.053 0.16-0.013 0.227-0.067 0.053-0.173 0.053-0.24-0.013s-0.067-0.173-0.001-0.24v-0.013c0.053-0.067 0.16-0.067 0.227-0.013"></path>
<path fill="none" stroke="currentColor" stroke-linejoin="round" stroke-linecap="round" stroke-miterlimit="4" stroke-width="1.3333" d="M10.774 15.546l-0.001-0.001c0.053 0.053 0.053 0.16-0.013 0.227-0.067 0.053-0.173 0.053-0.24-0.013s-0.067-0.173-0.001-0.24v-0.013c0.053-0.067 0.16-0.067 0.227-0.013"></path>
</symbol>
<symbol id="i-shield" viewBox="0 0 32 32">
<path fill="none" stroke="currentColor" stroke-linejoin="round" stroke-linecap="round" stroke-miterlimit="4" stroke-width="1.3333" d="M17.333 10.667l-4 4 5.333 2.667-4 4"></path>
<path fill="none" stroke="currentColor" stroke-linejoin="round" stroke-linecap="round" stroke-miterlimit="4" stroke-width="1.3333" d="M26.667 14.909c0 6.055-4.551 11.716-10.667 13.091-6.116-1.375-10.667-7.036-10.667-13.091v-4.756c0-1.083 0.655-2.059 1.657-2.468l6.667-2.728c1.501-0.615 3.184-0.615 4.685 0l6.667 2.728c1.003 0.411 1.657 1.385 1.657 2.468v4.756z"></path>
</symbol>
<symbol id="i-users" viewBox="0 0 32 32">
<path fill="none" stroke="currentColor" stroke-linejoin="round" stroke-linecap="round" stroke-miterlimit="4" stroke-width="1.3333" d="M21.333 26.667v-1.333c0-1.415-0.562-2.771-1.562-3.771s-2.357-1.562-3.771-1.562h-8c-1.415 0-2.771 0.562-3.771 1.562s-1.562 2.357-1.562 3.771v1.333"></path>
<path fill="none" stroke="currentColor" stroke-linejoin="round" stroke-linecap="round" stroke-miterlimit="4" stroke-width="1.3333" d="M12 14.667c2.945 0 5.333-2.388 5.333-5.333s-2.388-5.333-5.333-5.333c-2.945 0-5.333 2.388-5.333 5.333s2.388 5.333 5.333 5.333z"></path>
<path fill="none" stroke="currentColor" stroke-linejoin="round" stroke-linecap="round" stroke-miterlimit="4" stroke-width="1.3333" d="M29.333 26.667v-1.333c0-1.415-0.562-2.771-1.562-3.771s-2.357-1.562-3.771-1.562v0"></path>
<path fill="none" stroke="currentColor" stroke-linejoin="round" stroke-linecap="round" stroke-miterlimit="4" stroke-width="1.3333" d="M20 4c1.415 0 2.771 0.562 3.771 1.562s1.562 2.357 1.562 3.771-0.562 2.771-1.562 3.771c-1 1-2.357 1.562-3.771 1.562"></path>
</symbol>
</defs>
</svg>
