<svg aria-hidden="true" style="position: absolute; width: 0; height: 0; overflow: hidden;" version="1.1" xmlns="http://www.w3.org/2000/svg" xmlns:xlink="http://www.w3.org/1999/xlink">
<defs>
<symbol id="i-car" viewBox="0 0 32 32">
<path fill="none" stroke="currentColor" stroke-linejoin="round" stroke-linecap="round" stroke-miterlimit="4" stroke-width="1.4" d="M29.333 12l-3.493 1.333"></path>
<path fill="none" stroke="currentColor" stroke-linejoin="round" stroke-linecap="round" stroke-miterlimit="4" stroke-width="1.4" d="M6.175 13.333l-3.507-1.333"></path>
<path fill="none" stroke="currentColor" stroke-linejoin="round" stroke-linecap="round" stroke-miterlimit="4" stroke-width="1.4" d="M24.333 18.666h-3.333"></path>
<path fill="none" stroke="currentColor" stroke-linejoin="round" stroke-linecap="round" stroke-miterlimit="4" stroke-width="1.4" d="M11.001 18.666h-3.333"></path>
<path fill="none" stroke="currentColor" stroke-linejoin="round" stroke-linecap="round" stroke-miterlimit="4" stroke-width="1.4" d="M25.841 13.333l-1.119-5.349c-0.324-1.544-1.685-2.651-3.264-2.651h-10.773c-1.548 0-2.893 1.067-3.245 2.575l-1.268 5.425"></path>
<path fill="none" stroke="currentColor" stroke-linejoin="round" stroke-linecap="round" stroke-miterlimit="4" stroke-width="1.4" d="M4.335 26.667h3c1.104 0 2-0.896 2-2v-1.333h13.333v1.333c0 1.104 0.896 2 2 2h3c0.92 0 1.667-0.747 1.667-1.667v-7.667c0-2.209-1.791-4-4-4h-18.667c-2.209 0-4 1.791-4 4v7.667c0 0.92 0.747 1.667 1.667 1.667z"></path>
</symbol>
<symbol id="i-pizza" viewBox="0 0 32 32">
<path fill="none" stroke="currentColor" stroke-linejoin="round" stroke-linecap="round" stroke-miterlimit="4" stroke-width="2" d="M9.832 3.843c4.756 0.316 9.236 2.348 12.606 5.718s5.402 7.85 5.718 12.606c0.016 0.364-0.1 0.722-0.327 1.007s-0.55 0.479-0.908 0.544l-20.94 4.092c-0.246 0.048-0.5 0.035-0.739-0.038s-0.457-0.204-0.634-0.381c-0.177-0.177-0.308-0.395-0.381-0.634s-0.086-0.493-0.038-0.739l4.092-20.94c0.066-0.359 0.259-0.681 0.544-0.908s0.643-0.343 1.007-0.327v0z"></path>
<path fill="none" stroke="currentColor" stroke-linejoin="round" stroke-linecap="round" stroke-miterlimit="4" stroke-width="2" d="M23.225 24.352c0.151-2.084-0.149-4.177-0.879-6.135s-1.872-3.736-3.349-5.214-3.256-2.62-5.214-3.35c-1.958-0.73-4.050-1.029-6.135-0.879"></path>
<path d="M13.733 15.333c0 0.736-0.597 1.333-1.333 1.333s-1.333-0.597-1.333-1.333c0-0.736 0.597-1.333 1.333-1.333s1.333 0.597 1.333 1.333z"></path>
<path d="M17.866 19.333c0 0.736-0.597 1.333-1.333 1.333s-1.333-0.597-1.333-1.333c0-0.736 0.597-1.333 1.333-1.333s1.333 0.597 1.333 1.333z"></path>
<path d="M11.733 21.6c0 0.736-0.597 1.333-1.333 1.333s-1.333-0.597-1.333-1.333c0-0.736 0.597-1.333 1.333-1.333s1.333 0.597 1.333 1.333z"></path>
</symbol>
<symbol id="i-rocket" viewBox="0 0 32 32">
<path fill="none" stroke="currentColor" stroke-linejoin="round" stroke-linecap="round" stroke-miterlimit="4" stroke-width="1.4" d="M22.793 16.165l-7.196 5.757c-0.53 0.424-1.295 0.382-1.776-0.098l-3.646-3.646c-0.48-0.48-0.523-1.245-0.098-1.776l5.757-7.196c2.632-3.29 6.617-5.206 10.831-5.206v0c0.736 0 1.333 0.597 1.333 1.333v0c0 4.214-1.915 8.199-5.206 10.831v0z"></path>
<path fill="none" stroke="currentColor" stroke-linejoin="round" stroke-linecap="round" stroke-miterlimit="4" stroke-width="1.4" d="M21.335 17.333v5.843c0 0.505-0.285 0.967-0.737 1.193l-3.221 1.611c-0.659 0.329-1.46 0.062-1.789-0.596-0.028-0.056-0.052-0.115-0.072-0.175l-0.847-2.542"></path>
<path fill="none" stroke="currentColor" stroke-linejoin="round" stroke-linecap="round" stroke-miterlimit="4" stroke-width="1.4" d="M9.332 17.333l-2.542-0.847c-0.699-0.233-1.076-0.988-0.843-1.687 0.020-0.060 0.044-0.118 0.072-0.175l1.611-3.221c0.226-0.452 0.688-0.737 1.192-0.737h5.843"></path>
<path fill="none" stroke="currentColor" stroke-linejoin="round" stroke-linecap="round" stroke-miterlimit="4" stroke-width="1.4" d="M7.667 27.449l-3.667 0.551 0.551-3.667c0.179-1.19 1.112-2.123 2.302-2.302v0c1.496-0.225 2.891 0.806 3.116 2.302 0.041 0.27 0.041 0.544 0 0.814v0c-0.179 1.189-1.113 2.123-2.302 2.302v0z"></path>
</symbol>
<symbol id="i-train" viewBox="0 0 32 32">
<path fill="none" stroke="currentColor" stroke-linejoin="round" stroke-linecap="round" stroke-miterlimit="4" stroke-width="1.4" d="M3.067 21.693h22.267c2.413 0 4.373-1.973 4.373-4.387 0-0.4-0.053-0.787-0.16-1.16l-0.013-0.013c-1.48-5.4-6.373-9.133-11.96-9.133h-14.573"></path>
<path fill="none" stroke="currentColor" stroke-linejoin="round" stroke-linecap="round" stroke-miterlimit="4" stroke-width="1.4" d="M3.066 25.693h26.667"></path>
<path fill="none" stroke="currentColor" stroke-linejoin="round" stroke-linecap="round" stroke-miterlimit="4" stroke-width="1.4" d="M26.735 11.027l-3.573-0.001c-1.2 0-2.173 0.96-2.173 2.16 0 0.173 0.013 0.347 0.053 0.52l-0.013-0.013c0.387 1.547 1.787 2.64 3.387 2.64h5.16"></path>
<path fill="none" stroke="currentColor" stroke-linejoin="round" stroke-linecap="round" stroke-miterlimit="4" stroke-width="1.4" d="M3.068 11.027h10.653c1.467-0.013 2.667 1.187 2.667 2.653s-1.2 2.667-2.667 2.667h-10.667"></path>
<path fill="none" stroke="currentColor" stroke-linejoin="round" stroke-linecap="round" stroke-miterlimit="4" stroke-width="1.4" d="M11.066 16.36v-5.333"></path>
<path fill="none" stroke="currentColor" stroke-linejoin="round" stroke-linecap="round" stroke-miterlimit="4" stroke-width="1.4" d="M5.734 16.36v-5.333"></path>
</symbol>
<symbol id="i-blackboard" viewBox="0 0 32 32">
<path fill="none" stroke="currentColor" stroke-linejoin="round" stroke-linecap="round" stroke-miterlimit="4" stroke-width="1.4" d="M10 17.667h12"></path>
<path fill="none" stroke="currentColor" stroke-linejoin="round" stroke-linecap="round" stroke-miterlimit="4" stroke-width="1.4" d="M16 17.667v-8"></path>
<path fill="none" stroke="currentColor" stroke-linejoin="round" stroke-linecap="round" stroke-miterlimit="4" stroke-width="1.4" d="M20 17.667v-5.333"></path>
<path fill="none" stroke="currentColor" stroke-linejoin="round" stroke-linecap="round" stroke-miterlimit="4" stroke-width="1.4" d="M21.333 28l-1.333-5.333"></path>
<path fill="none" stroke="currentColor" stroke-linejoin="round" stroke-linecap="round" stroke-miterlimit="4" stroke-width="1.4" d="M10.667 28l1.333-5.333"></path>
<path fill="none" stroke="currentColor" stroke-linejoin="round" stroke-linecap="round" stroke-miterlimit="4" stroke-width="1.4" d="M25.233 22.667h-18.467c-1.528 0-2.767-1.239-2.767-2.767v-13.133c0-1.528 1.239-2.767 2.767-2.767h18.465c1.528-0.001 2.767 1.237 2.768 2.765 0 0 0 0.001 0 0.001v13.132c0.001 1.528-1.237 2.767-2.765 2.768-0 0-0.001 0-0.001 0v0z"></path>
<path fill="none" stroke="currentColor" stroke-linejoin="round" stroke-linecap="round" stroke-miterlimit="4" stroke-width="1.4" d="M12 17.667v-4"></path>
</symbol>
<symbol id="i-book" viewBox="0 0 32 32">
<path fill="none" stroke="currentColor" stroke-linejoin="round" stroke-linecap="round" stroke-miterlimit="4" stroke-width="1.4" d="M20 18.343c1.281-0.425 2.595-0.696 4-0.853"></path>
<path fill="none" stroke="currentColor" stroke-linejoin="round" stroke-linecap="round" stroke-miterlimit="4" stroke-width="1.4" d="M8 17.491c1.405 0.156 2.719 0.428 4 0.853"></path>
<path fill="none" stroke="currentColor" stroke-linejoin="round" stroke-linecap="round" stroke-miterlimit="4" stroke-width="1.4" d="M24 12.157c-1.405 0.156-2.719 0.428-4 0.853"></path>
<path fill="none" stroke="currentColor" stroke-linejoin="round" stroke-linecap="round" stroke-miterlimit="4" stroke-width="1.4" d="M12 13.009c-1.281-0.425-2.595-0.696-4-0.853"></path>
<path fill="none" stroke="currentColor" stroke-linejoin="round" stroke-linecap="round" stroke-miterlimit="4" stroke-width="1.4" d="M16 8.175c-3.459-1.937-6.549-2.708-10.644-2.84-0.744-0.025-1.356 0.588-1.356 1.333v15.804c0 0.721 0.577 1.32 1.299 1.331 4.123 0.061 7.227 0.821 10.701 2.864 3.475-2.043 6.579-2.803 10.701-2.864 0.721-0.011 1.299-0.609 1.299-1.332v-15.804c0-0.745-0.612-1.357-1.356-1.333-4.095 0.133-7.185 0.904-10.644 2.841v0z"></path>
<path fill="none" stroke="currentColor" stroke-linejoin="round" stroke-linecap="round" stroke-miterlimit="4" stroke-width="1.4" d="M16 8.173v18.493"></path>
</symbol>
<symbol id="i-seal" viewBox="0 0 32 32">
<path fill="none" stroke="currentColor" stroke-linejoin="round" stroke-linecap="round" stroke-miterlimit="4" stroke-width="1.4" d="M24 10.667v-4c0-1.473-1.193-2.667-2.667-2.667h-14.667c-1.473 0-2.667 1.193-2.667 2.667v18.667c0 1.473 1.193 2.667 2.667 2.667h4"></path>
<path fill="none" stroke="currentColor" stroke-linejoin="round" stroke-linecap="round" stroke-miterlimit="4" stroke-width="1.4" d="M10 22.667c-1.104 0-2-0.896-2-2s0.896-2 2-2c1.104 0 2 0.896 2 2s-0.896 2-2 2z"></path>
<path fill="none" stroke="currentColor" stroke-linejoin="round" stroke-linecap="round" stroke-miterlimit="4" stroke-width="1.4" d="M28 26.115v-1.153c0-0.573-0.367-1.084-0.912-1.265l-3.088-1.029v-2.667l0.929-0.595c0.684-0.439 1.003-1.273 0.783-2.056-0.224-0.799-0.951-1.349-1.78-1.349h-3.864c-0.828 0-1.556 0.551-1.78 1.349-0.22 0.783 0.099 1.617 0.783 2.056l0.929 0.595v2.667l-3.088 1.029c-0.545 0.181-0.912 0.691-0.912 1.265v1.153c0 0.353 0.14 0.693 0.391 0.943l0.552 0.552c0.251 0.251 0.589 0.391 0.943 0.391h8.229c0.353 0 0.693-0.14 0.943-0.391l0.552-0.552c0.251-0.251 0.391-0.589 0.391-0.943z"></path>
<path fill="none" stroke="currentColor" stroke-linejoin="round" stroke-linecap="round" stroke-miterlimit="4" stroke-width="1.4" d="M8 9.333h10.667"></path>
<path fill="none" stroke="currentColor" stroke-linejoin="round" stroke-linecap="round" stroke-miterlimit="4" stroke-width="1.4" d="M8 14h5.333"></path>
</symbol>
</defs>
</svg>
