<svg aria-hidden="true" style="position: absolute; width: 0; height: 0; overflow: hidden;" version="1.1" xmlns="http://www.w3.org/2000/svg" xmlns:xlink="http://www.w3.org/1999/xlink">
<defs>
<symbol id="i-bank" viewBox="0 0 32 32">
<path fill="none" stroke="currentColor" stroke-linejoin="round" stroke-linecap="round" stroke-miterlimit="4" stroke-width="1.3333" d="M27.963 13.777h-23.925c-0.388 0.001-0.703-0.313-0.704-0.701 0-0 0-0.001 0-0.001v-2.635c0-0.574 0.368-1.083 0.912-1.264l11.309-3.771c0.289-0.096 0.602-0.096 0.891 0l11.309 3.771c0.544 0.181 0.912 0.69 0.912 1.264v2.635c0 0.388-0.315 0.703-0.703 0.703-0 0-0.001 0-0.001 0v0z"></path>
<path fill="none" stroke="currentColor" stroke-linejoin="round" stroke-linecap="round" stroke-miterlimit="4" stroke-width="1.3333" d="M5.333 24v-10.223"></path>
<path fill="none" stroke="currentColor" stroke-linejoin="round" stroke-linecap="round" stroke-miterlimit="4" stroke-width="1.3333" d="M26.667 13.777v10.223"></path>
<path fill="none" stroke="currentColor" stroke-linejoin="round" stroke-linecap="round" stroke-miterlimit="4" stroke-width="1.3333" d="M10.667 13.777v10.223"></path>
<path fill="none" stroke="currentColor" stroke-linejoin="round" stroke-linecap="round" stroke-miterlimit="4" stroke-width="1.3333" d="M16 13.777v10.223"></path>
<path fill="none" stroke="currentColor" stroke-linejoin="round" stroke-linecap="round" stroke-miterlimit="4" stroke-width="1.3333" d="M21.333 13.777v10.223"></path>
<path fill="none" stroke="currentColor" stroke-linejoin="round" stroke-linecap="round" stroke-miterlimit="4" stroke-width="1.3333" d="M27.176 24h-22.352c-0.505 0-0.966 0.286-1.192 0.737l-0.824 1.648c-0.093 0.185-0.141 0.389-0.141 0.596v1.019h26.667v-1.019c0-0.207-0.048-0.411-0.141-0.596l-0.824-1.648c-0.226-0.452-0.687-0.737-1.192-0.737v0z"></path>
<path fill="currentColor" d="M16.934 9.667c0 0.552-0.448 1-1 1s-1-0.448-1-1c0-0.552 0.448-1 1-1s1 0.448 1 1z"></path>
<path fill="none" stroke-linejoin="round" stroke-linecap="round" stroke-miterlimit="4" stroke-width="1.3333" d="M30.667 28h-29.333"></path>
</symbol>
<symbol id="i-calc" viewBox="0 0 32 32">
<path fill="none" stroke="currentColor" stroke-linejoin="round" stroke-linecap="round" stroke-miterlimit="4" stroke-width="1.3333" d="M18.667 19.866v7.601c0.001 1.031 2.089 1.866 4.666 1.866s4.665-0.836 4.666-1.866v-7.601"></path>
<path fill="none" stroke="currentColor" stroke-linejoin="round" stroke-linecap="round" stroke-miterlimit="4" stroke-width="1.3333" d="M18.668 23.667c0 1.030 2.089 1.866 4.666 1.866s4.666-0.836 4.666-1.866"></path>
<path fill="none" stroke="currentColor" stroke-linejoin="round" stroke-linecap="round" stroke-miterlimit="4" stroke-width="1.3333" d="M8 18.667h1.333"></path>
<path fill="none" stroke="currentColor" stroke-linejoin="round" stroke-linecap="round" stroke-miterlimit="4" stroke-width="1.3333" d="M13.333 18.667h1.333"></path>
<path fill="none" stroke="currentColor" stroke-linejoin="round" stroke-linecap="round" stroke-miterlimit="4" stroke-width="1.3333" d="M8 22.667h1.333"></path>
<path fill="none" stroke="currentColor" stroke-linejoin="round" stroke-linecap="round" stroke-miterlimit="4" stroke-width="1.3333" d="M13.333 22.667h1.333"></path>
<path fill="none" stroke="currentColor" stroke-linejoin="round" stroke-linecap="round" stroke-miterlimit="4" stroke-width="1.3333" d="M24 10.667h-20"></path>
<path fill="none" stroke="currentColor" stroke-linejoin="round" stroke-linecap="round" stroke-miterlimit="4" stroke-width="1.3333" d="M14.667 26.667h-8c-0.707 0-1.386-0.281-1.886-0.781s-0.781-1.178-0.781-1.886v-17.333c0-0.707 0.281-1.386 0.781-1.886s1.178-0.781 1.886-0.781h14.667c0.707 0 1.386 0.281 1.886 0.781s0.781 1.178 0.781 1.886v8"></path>
<path fill="none" stroke="currentColor" stroke-linejoin="round" stroke-linecap="round" stroke-miterlimit="4" stroke-width="1.3333" d="M8 14.667h1.333"></path>
<path fill="none" stroke="currentColor" stroke-linejoin="round" stroke-linecap="round" stroke-miterlimit="4" stroke-width="1.3333" d="M13.333 14.667h1.333"></path>
<path fill="none" stroke="currentColor" stroke-linejoin="round" stroke-linecap="round" stroke-miterlimit="4" stroke-width="1.3333" d="M18.667 14.667h1.333"></path>
<path fill="none" stroke="currentColor" stroke-linejoin="round" stroke-linecap="round" stroke-miterlimit="4" stroke-width="1.3333" d="M18.668 19.866c0 1.030 2.089 1.866 4.666 1.866s4.665-0.836 4.665-1.866c0-1.032-2.090-1.866-4.666-1.866s-4.665 0.836-4.666 1.866"></path>
</symbol>
<symbol id="i-currency" viewBox="0 -2 32 32">
<path fill="none" stroke="currentColor" stroke-linejoin="round" stroke-linecap="round" stroke-miterlimit="4" stroke-width="1.3333" d="M4 10.667h24"></path>
<path fill="none" stroke="currentColor" stroke-linejoin="round" stroke-linecap="round" stroke-miterlimit="4" stroke-width="1.3333" d="M12 16h-2.667"></path>
<path fill="none" stroke="currentColor" stroke-linejoin="round" stroke-linecap="round" stroke-miterlimit="4" stroke-width="1.3333" d="M14.667 24h-6.667c-1.061 0-2.078-0.421-2.828-1.172s-1.172-1.768-1.172-2.828v-10.667c0-1.061 0.421-2.078 1.172-2.828s1.768-1.172 2.828-1.172h16c1.061 0 2.078 0.421 2.828 1.172s1.172 1.768 1.172 2.828v5.333"></path>
<path fill="none" stroke="currentColor" stroke-linejoin="round" stroke-linecap="round" stroke-miterlimit="4" stroke-width="1.3333" d="M22.667 18.667v-1.333"></path>
<path fill="none" stroke="currentColor" stroke-linejoin="round" stroke-linecap="round" stroke-miterlimit="4" stroke-width="1.3333" d="M22.667 26.667v1.333"></path>
<path fill="none" stroke="currentColor" stroke-linejoin="round" stroke-linecap="round" stroke-miterlimit="4" stroke-width="1.3333" d="M20.354 25.71c0.346 0.565 0.936 0.956 1.647 0.956h1.461c1.035 0 1.871-0.837 1.871-1.87 0-0.859-0.585-1.606-1.417-1.817l-2.499-0.627c-0.831-0.209-1.417-0.958-1.417-1.817 0-1.034 0.838-1.87 1.871-1.87h1.461c0.712 0 1.3 0.388 1.646 0.952"></path>
</symbol>
<symbol id="i-doc" viewBox="0 0 32 32">
<path fill="none" stroke="currentColor" stroke-linejoin="round" stroke-linecap="round" stroke-miterlimit="4" stroke-width="1.3333" d="M9.333 28h13.333c1.061 0 2.078-0.421 2.828-1.172s1.172-1.768 1.172-2.828v-12.838c0-1.061-0.421-2.078-1.172-2.828l-3.162-3.162c-0.75-0.75-1.768-1.172-2.828-1.172h-10.171c-1.061 0-2.078 0.421-2.828 1.172s-1.172 1.768-1.172 2.828v16c0 1.061 0.421 2.078 1.172 2.828s1.768 1.172 2.828 1.172v0z"></path>
<path fill="none" stroke="currentColor" stroke-linejoin="round" stroke-linecap="round" stroke-miterlimit="4" stroke-width="1.3333" d="M21.333 22.667h-10.667"></path>
<path fill="none" stroke="currentColor" stroke-linejoin="round" stroke-linecap="round" stroke-miterlimit="4" stroke-width="1.3333" d="M21.333 18h-10.667"></path>
<path fill="none" stroke="currentColor" stroke-linejoin="round" stroke-linecap="round" stroke-miterlimit="4" stroke-width="1.3333" d="M14.667 13.333h-4"></path>
<path fill="none" stroke="currentColor" stroke-linejoin="round" stroke-linecap="round" stroke-miterlimit="4" stroke-width="1.3333" d="M26.667 11.333h-4.667c-0.707 0-1.386-0.281-1.886-0.781s-0.781-1.178-0.781-1.886v-4.667"></path>
</symbol>
<symbol id="i-print" viewBox="0 -2 32 32">
<path fill="none" stroke="currentColor" stroke-linejoin="round" stroke-linecap="round" stroke-miterlimit="4" stroke-width="1.3333" d="M19.333 26.222l-3.333 1.333-3.333-1.333-3.333 1.333v-17.333h13.333v17.333l-3.333-1.333z"></path>
<path fill="none" stroke="currentColor" stroke-linejoin="round" stroke-linecap="round" stroke-miterlimit="4" stroke-width="1.3333" d="M13.333 14.222h5.333"></path>
<path fill="none" stroke="currentColor" stroke-linejoin="round" stroke-linecap="round" stroke-miterlimit="4" stroke-width="1.3333" d="M18.667 18.222h-5.333"></path>
<path fill="none" stroke="currentColor" stroke-linejoin="round" stroke-linecap="round" stroke-miterlimit="4" stroke-width="1.3333" d="M13.333 22.222h4"></path>
<path fill="none" stroke="currentColor" stroke-linejoin="round" stroke-linecap="round" stroke-miterlimit="4" stroke-width="1.3333" d="M22.667 15.556h2.667c1.473 0 2.667-1.193 2.667-2.667v-5.333c0-1.473-1.193-2.667-2.667-2.667h-18.667c-1.473 0-2.667 1.193-2.667 2.667v5.333c0 1.473 1.193 2.667 2.667 2.667h2.667"></path>
</symbol>
<symbol id="i-time" viewBox="0 0 32 32">
<path fill="none" stroke="currentColor" stroke-linejoin="round" stroke-linecap="round" stroke-miterlimit="4" stroke-width="1.3333" d="M10.667 28h-6.667"></path>
<path fill="none" stroke="currentColor" stroke-linejoin="round" stroke-linecap="round" stroke-miterlimit="4" stroke-width="1.3333" d="M6.667 24h4"></path>
<path fill="none" stroke="currentColor" stroke-linejoin="round" stroke-linecap="round" stroke-miterlimit="4" stroke-width="1.3333" d="M15.714 11.955v4.688l3.685 2.248"></path>
<path fill="none" stroke="currentColor" stroke-linejoin="round" stroke-linecap="round" stroke-miterlimit="4" stroke-width="1.3333" d="M16 28c2.373 0 4.693-0.704 6.667-2.022s3.511-3.193 4.42-5.385c0.908-2.193 1.146-4.605 0.683-6.933s-1.606-4.466-3.284-6.144c-1.678-1.678-3.816-2.821-6.144-3.284s-4.741-0.225-6.933 0.683-4.067 2.446-5.385 4.42c-1.319 1.973-2.022 4.293-2.022 6.667 0.004 0.898 0.11 1.793 0.318 2.667"></path>
</symbol>
<symbol id="i-group" viewBox="0 0 32 32">
<path fill="none" stroke="currentColor" stroke-linejoin="round" stroke-linecap="round" stroke-miterlimit="4" stroke-width="1.3333" d="M27.724 12.698c1.053 1.053 1.053 2.761 0 3.815s-2.761 1.053-3.815 0c-1.053-1.053-1.053-2.761 0-3.815s2.761-1.053 3.815 0z"></path>
<path fill="none" stroke="currentColor" stroke-linejoin="round" stroke-linecap="round" stroke-miterlimit="4" stroke-width="1.3333" d="M18.937 7.883c1.622 1.622 1.622 4.252 0 5.874s-4.252 1.622-5.874 0c-1.622-1.622-1.622-4.252 0-5.874s4.252-1.622 5.874 0"></path>
<path fill="none" stroke="currentColor" stroke-linejoin="round" stroke-linecap="round" stroke-miterlimit="4" stroke-width="1.3333" d="M8.092 12.698c1.053 1.053 1.053 2.761 0 3.815s-2.761 1.053-3.815 0c-1.053-1.053-1.053-2.761 0-3.815s2.761-1.053 3.815 0z"></path>
<path fill="none" stroke="currentColor" stroke-linejoin="round" stroke-linecap="round" stroke-miterlimit="4" stroke-width="1.3333" d="M30.667 25.333v-1.461c0-1.841-1.492-3.333-3.333-3.333h-1.068"></path>
<path fill="none" stroke="currentColor" stroke-linejoin="round" stroke-linecap="round" stroke-miterlimit="4" stroke-width="1.3333" d="M1.333 25.333v-1.461c0-1.841 1.492-3.333 3.333-3.333h1.068"></path>
<path fill="none" stroke="currentColor" stroke-linejoin="round" stroke-linecap="round" stroke-miterlimit="4" stroke-width="1.3333" d="M23.119 25.333v-2.135c0-2.577-2.089-4.667-4.667-4.667h-4.905c-2.577 0-4.667 2.089-4.667 4.667v2.135"></path>
</symbol>
<symbol id="i-network" viewBox="0 0 32 32">
<path fill="none" stroke="currentColor" stroke-linejoin="round" stroke-linecap="round" stroke-miterlimit="4" stroke-width="1.3333" d="M12 14c1.104 0 2 0.896 2 2s-0.896 2-2 2c-1.104 0-2-0.896-2-2s0.896-2 2-2z"></path>
<path fill="none" stroke="currentColor" stroke-linejoin="round" stroke-linecap="round" stroke-miterlimit="4" stroke-width="1.3333" d="M21.587 10.667c0 1.104-0.896 2-2 2s-2-0.896-2-2c0-1.104 0.896-2 2-2s2 0.896 2 2z"></path>
<path fill="none" stroke="currentColor" stroke-linejoin="round" stroke-linecap="round" stroke-miterlimit="4" stroke-width="1.3333" d="M28.759 21.333c0 1.104-0.896 2-2 2s-2-0.896-2-2c0-1.104 0.896-2 2-2s2 0.896 2 2z"></path>
<path fill="none" stroke="currentColor" stroke-linejoin="round" stroke-linecap="round" stroke-miterlimit="4" stroke-width="1.3333" d="M28 16h-14"></path>
<path fill="none" stroke="currentColor" stroke-linejoin="round" stroke-linecap="round" stroke-miterlimit="4" stroke-width="1.3333" d="M10 16h-6"></path>
<path fill="none" stroke="currentColor" stroke-linejoin="round" stroke-linecap="round" stroke-miterlimit="4" stroke-width="1.3333" d="M24.76 21.333h-19.52"></path>
<path fill="none" stroke="currentColor" stroke-linejoin="round" stroke-linecap="round" stroke-miterlimit="4" stroke-width="1.3333" d="M17.586 10.667h-12.347"></path>
<path fill="none" stroke="currentColor" stroke-linejoin="round" stroke-linecap="round" stroke-miterlimit="4" stroke-width="1.3333" d="M26.76 10.667h-5.173"></path>
<path fill="none" stroke="currentColor" stroke-linejoin="round" stroke-linecap="round" stroke-miterlimit="4" stroke-width="1.3333" d="M19.842 12.652c0.103 1.063 0.159 2.185 0.159 3.348 0 6.628-1.791 12-4 12-1.983 0-3.627-4.325-3.944-10.001"></path>
<path fill="none" stroke="currentColor" stroke-linejoin="round" stroke-linecap="round" stroke-miterlimit="4" stroke-width="1.3333" d="M19.176 8.708c-0.731-2.861-1.881-4.708-3.176-4.708-1.981 0-3.627 4.325-3.944 10"></path>
<path fill="none" stroke="currentColor" stroke-linejoin="round" stroke-linecap="round" stroke-miterlimit="4" stroke-width="1.3333" d="M27.489 19.468c0.331-1.099 0.511-2.261 0.511-3.468 0-6.628-5.372-12-12-12s-12 5.372-12 12c0 6.628 5.372 12 12 12 3.996 0 7.533-1.955 9.713-4.957"></path>
</symbol>
<symbol id="i-wrench" viewBox="0 0 32 32">
<path fill="none" stroke="currentColor" stroke-linejoin="round" stroke-linecap="round" stroke-miterlimit="4" stroke-width="1.3333" d="M19.468 10.007l3.411-3.411c0.045-0.045 0.031-0.125-0.028-0.151-1.936-0.828-4.315-0.481-5.911 1.115-1.549 1.549-1.957 3.752-1.223 5.627l-5.111 5.111c-0.844 0.844-0.844 2.213 0 3.059 0.844 0.844 2.213 0.844 3.059 0l5.152-5.152c1.876 0.733 4.077 0.327 5.627-1.223 1.599-1.599 2.023-3.981 1.117-5.917-0.027-0.056-0.104-0.071-0.149-0.027l-3.497 3.416-2.447-2.447z"></path>
<path fill="none" stroke="currentColor" stroke-linejoin="round" stroke-linecap="round" stroke-miterlimit="4" stroke-width="1.3333" d="M14.667 3.404c-6.368 0.667-11.333 6.051-11.333 12.596 0 6.996 5.671 12.667 12.667 12.667 6.545 0 11.929-4.965 12.596-11.333"></path>
</symbol>
</defs>
</svg>
