<svg aria-hidden="true" style="position: absolute; width: 0; height: 0; overflow: hidden;" version="1.1" xmlns="http://www.w3.org/2000/svg" xmlns:xlink="http://www.w3.org/1999/xlink">
<defs>
<symbol id="i-bank" viewBox="0 0 32 32">
<path fill="none" stroke="currentColor" stroke-linejoin="round" stroke-linecap="round" stroke-miterlimit="4" stroke-width="1.3333" d="M27.963 13.777h-23.925c-0.388 0.001-0.703-0.313-0.704-0.701 0-0 0-0.001 0-0.001v-2.635c0-0.574 0.368-1.083 0.912-1.264l11.309-3.771c0.289-0.096 0.602-0.096 0.891 0l11.309 3.771c0.544 0.181 0.912 0.69 0.912 1.264v2.635c0 0.388-0.315 0.703-0.703 0.703-0 0-0.001 0-0.001 0v0z"></path>
<path fill="none" stroke="currentColor" stroke-linejoin="round" stroke-linecap="round" stroke-miterlimit="4" stroke-width="1.3333" d="M5.333 24v-10.223"></path>
<path fill="none" stroke="currentColor" stroke-linejoin="round" stroke-linecap="round" stroke-miterlimit="4" stroke-width="1.3333" d="M26.667 13.777v10.223"></path>
<path fill="none" stroke="currentColor" stroke-linejoin="round" stroke-linecap="round" stroke-miterlimit="4" stroke-width="1.3333" d="M10.667 13.777v10.223"></path>
<path fill="none" stroke="currentColor" stroke-linejoin="round" stroke-linecap="round" stroke-miterlimit="4" stroke-width="1.3333" d="M16 13.777v10.223"></path>
<path fill="none" stroke="currentColor" stroke-linejoin="round" stroke-linecap="round" stroke-miterlimit="4" stroke-width="1.3333" d="M21.333 13.777v10.223"></path>
<path fill="none" stroke="currentColor" stroke-linejoin="round" stroke-linecap="round" stroke-miterlimit="4" stroke-width="1.3333" d="M27.176 24h-22.352c-0.505 0-0.966 0.286-1.192 0.737l-0.824 1.648c-0.093 0.185-0.141 0.389-0.141 0.596v1.019h26.667v-1.019c0-0.207-0.048-0.411-0.141-0.596l-0.824-1.648c-0.226-0.452-0.687-0.737-1.192-0.737v0z"></path>
<path fill="currentColor" d="M16.934 9.667c0 0.552-0.448 1-1 1s-1-0.448-1-1c0-0.552 0.448-1 1-1s1 0.448 1 1z"></path>
<path fill="none" stroke-linejoin="round" stroke-linecap="round" stroke-miterlimit="4" stroke-width="1.3333" d="M30.667 28h-29.333"></path>
</symbol>
<symbol id="i-calc" viewBox="0 0 32 32">
<path fill="none" stroke="currentColor" stroke-linejoin="round" stroke-linecap="round" stroke-miterlimit="4" stroke-width="1.3333" d="M18.667 19.866v7.601c0.001 1.031 2.089 1.866 4.666 1.866s4.665-0.836 4.666-1.866v-7.601"></path>
<path fill="none" stroke="currentColor" stroke-linejoin="round" stroke-linecap="round" stroke-miterlimit="4" stroke-width="1.3333" d="M18.668 23.667c0 1.030 2.089 1.866 4.666 1.866s4.666-0.836 4.666-1.866"></path>
<path fill="none" stroke="currentColor" stroke-linejoin="round" stroke-linecap="round" stroke-miterlimit="4" stroke-width="1.3333" d="M8 18.667h1.333"></path>
<path fill="none" stroke="currentColor" stroke-linejoin="round" stroke-linecap="round" stroke-miterlimit="4" stroke-width="1.3333" d="M13.333 18.667h1.333"></path>
<path fill="none" stroke="currentColor" stroke-linejoin="round" stroke-linecap="round" stroke-miterlimit="4" stroke-width="1.3333" d="M8 22.667h1.333"></path>
<path fill="none" stroke="currentColor" stroke-linejoin="round" stroke-linecap="round" stroke-miterlimit="4" stroke-width="1.3333" d="M13.333 22.667h1.333"></path>
<path fill="none" stroke="currentColor" stroke-linejoin="round" stroke-linecap="round" stroke-miterlimit="4" stroke-width="1.3333" d="M24 10.667h-20"></path>
<path fill="none" stroke="currentColor" stroke-linejoin="round" stroke-linecap="round" stroke-miterlimit="4" stroke-width="1.3333" d="M14.667 26.667h-8c-0.707 0-1.386-0.281-1.886-0.781s-0.781-1.178-0.781-1.886v-17.333c0-0.707 0.281-1.386 0.781-1.886s1.178-0.781 1.886-0.781h14.667c0.707 0 1.386 0.281 1.886 0.781s0.781 1.178 0.781 1.886v8"></path>
<path fill="none" stroke="currentColor" stroke-linejoin="round" stroke-linecap="round" stroke-miterlimit="4" stroke-width="1.3333" d="M8 14.667h1.333"></path>
<path fill="none" stroke="currentColor" stroke-linejoin="round" stroke-linecap="round" stroke-miterlimit="4" stroke-width="1.3333" d="M13.333 14.667h1.333"></path>
<path fill="none" stroke="currentColor" stroke-linejoin="round" stroke-linecap="round" stroke-miterlimit="4" stroke-width="1.3333" d="M18.667 14.667h1.333"></path>
<path fill="none" stroke="currentColor" stroke-linejoin="round" stroke-linecap="round" stroke-miterlimit="4" stroke-width="1.3333" d="M18.668 19.866c0 1.030 2.089 1.866 4.666 1.866s4.665-0.836 4.665-1.866c0-1.032-2.090-1.866-4.666-1.866s-4.665 0.836-4.666 1.866"></path>
</symbol>
<symbol id="i-currency" viewBox="0 -2 32 32">
<path fill="none" stroke="currentColor" stroke-linejoin="round" stroke-linecap="round" stroke-miterlimit="4" stroke-width="1.3333" d="M4 10.667h24"></path>
<path fill="none" stroke="currentColor" stroke-linejoin="round" stroke-linecap="round" stroke-miterlimit="4" stroke-width="1.3333" d="M12 16h-2.667"></path>
<path fill="none" stroke="currentColor" stroke-linejoin="round" stroke-linecap="round" stroke-miterlimit="4" stroke-width="1.3333" d="M14.667 24h-6.667c-1.061 0-2.078-0.421-2.828-1.172s-1.172-1.768-1.172-2.828v-10.667c0-1.061 0.421-2.078 1.172-2.828s1.768-1.172 2.828-1.172h16c1.061 0 2.078 0.421 2.828 1.172s1.172 1.768 1.172 2.828v5.333"></path>
<path fill="none" stroke="currentColor" stroke-linejoin="round" stroke-linecap="round" stroke-miterlimit="4" stroke-width="1.3333" d="M22.667 18.667v-1.333"></path>
<path fill="none" stroke="currentColor" stroke-linejoin="round" stroke-linecap="round" stroke-miterlimit="4" stroke-width="1.3333" d="M22.667 26.667v1.333"></path>
<path fill="none" stroke="currentColor" stroke-linejoin="round" stroke-linecap="round" stroke-miterlimit="4" stroke-width="1.3333" d="M20.354 25.71c0.346 0.565 0.936 0.956 1.647 0.956h1.461c1.035 0 1.871-0.837 1.871-1.87 0-0.859-0.585-1.606-1.417-1.817l-2.499-0.627c-0.831-0.209-1.417-0.958-1.417-1.817 0-1.034 0.838-1.87 1.871-1.87h1.461c0.712 0 1.3 0.388 1.646 0.952"></path>
</symbol>
<symbol id="i-doc" viewBox="0 0 32 32">
<path fill="none" stroke="currentColor" stroke-linejoin="round" stroke-linecap="round" stroke-miterlimit="4" stroke-width="1.3333" d="M9.333 28h13.333c1.061 0 2.078-0.421 2.828-1.172s1.172-1.768 1.172-2.828v-12.838c0-1.061-0.421-2.078-1.172-2.828l-3.162-3.162c-0.75-0.75-1.768-1.172-2.828-1.172h-10.171c-1.061 0-2.078 0.421-2.828 1.172s-1.172 1.768-1.172 2.828v16c0 1.061 0.421 2.078 1.172 2.828s1.768 1.172 2.828 1.172v0z"></path>
<path fill="none" stroke="currentColor" stroke-linejoin="round" stroke-linecap="round" stroke-miterlimit="4" stroke-width="1.3333" d="M21.333 22.667h-10.667"></path>
<path fill="none" stroke="currentColor" stroke-linejoin="round" stroke-linecap="round" stroke-miterlimit="4" stroke-width="1.3333" d="M21.333 18h-10.667"></path>
<path fill="none" stroke="currentColor" stroke-linejoin="round" stroke-linecap="round" stroke-miterlimit="4" stroke-width="1.3333" d="M14.667 13.333h-4"></path>
<path fill="none" stroke="currentColor" stroke-linejoin="round" stroke-linecap="round" stroke-miterlimit="4" stroke-width="1.3333" d="M26.667 11.333h-4.667c-0.707 0-1.386-0.281-1.886-0.781s-0.781-1.178-0.781-1.886v-4.667"></path>
</symbol>
<symbol id="i-print" viewBox="0 -2 32 32">
<path fill="none" stroke="currentColor" stroke-linejoin="round" stroke-linecap="round" stroke-miterlimit="4" stroke-width="1.3333" d="M19.333 26.222l-3.333 1.333-3.333-1.333-3.333 1.333v-17.333h13.333v17.333l-3.333-1.333z"></path>
<path fill="none" stroke="currentColor" stroke-linejoin="round" stroke-linecap="round" stroke-miterlimit="4" stroke-width="1.3333" d="M13.333 14.222h5.333"></path>
<path fill="none" stroke="currentColor" stroke-linejoin="round" stroke-linecap="round" stroke-miterlimit="4" stroke-width="1.3333" d="M18.667 18.222h-5.333"></path>
<path fill="none" stroke="currentColor" stroke-linejoin="round" stroke-linecap="round" stroke-miterlimit="4" stroke-width="1.3333" d="M13.333 22.222h4"></path>
<path fill="none" stroke="currentColor" stroke-linejoin="round" stroke-linecap="round" stroke-miterlimit="4" stroke-width="1.3333" d="M22.667 15.556h2.667c1.473 0 2.667-1.193 2.667-2.667v-5.333c0-1.473-1.193-2.667-2.667-2.667h-18.667c-1.473 0-2.667 1.193-2.667 2.667v5.333c0 1.473 1.193 2.667 2.667 2.667h2.667"></path>
</symbol>
<symbol id="i-time" viewBox="0 0 32 32">
<path fill="none" stroke="currentColor" stroke-linejoin="round" stroke-linecap="round" stroke-miterlimit="4" stroke-width="1.3333" d="M10.667 28h-6.667"></path>
<path fill="none" stroke="currentColor" stroke-linejoin="round" stroke-linecap="round" stroke-miterlimit="4" stroke-width="1.3333" d="M6.667 24h4"></path>
<path fill="none" stroke="currentColor" stroke-linejoin="round" stroke-linecap="round" stroke-miterlimit="4" stroke-width="1.3333" d="M15.714 11.955v4.688l3.685 2.248"></path>
<path fill="none" stroke="currentColor" stroke-linejoin="round" stroke-linecap="round" stroke-miterlimit="4" stroke-width="1.3333" d="M16 28c2.373 0 4.693-0.704 6.667-2.022s3.511-3.193 4.42-5.385c0.908-2.193 1.146-4.605 0.683-6.933s-1.606-4.466-3.284-6.144c-1.678-1.678-3.816-2.821-6.144-3.284s-4.741-0.225-6.933 0.683-4.067 2.446-5.385 4.42c-1.319 1.973-2.022 4.293-2.022 6.667 0.004 0.898 0.11 1.793 0.318 2.667"></path>
</symbol>
<symbol id="i-group" viewBox="0 0 32 32">
<path fill="none" stroke="currentColor" stroke-linejoin="round" stroke-linecap="round" stroke-miterlimit="4" stroke-width="1.3333" d="M27.724 12.698c1.053 1.053 1.053 2.761 0 3.815s-2.761 1.053-3.815 0c-1.053-1.053-1.053-2.761 0-3.815s2.761-1.053 3.815 0z"></path>
<path fill="none" stroke="currentColor" stroke-linejoin="round" stroke-linecap="round" stroke-miterlimit="4" stroke-width="1.3333" d="M18.937 7.883c1.622 1.622 1.622 4.252 0 5.874s-4.252 1.622-5.874 0c-1.622-1.622-1.622-4.252 0-5.874s4.252-1.622 5.874 0"></path>
<path fill="none" stroke="currentColor" stroke-linejoin="round" stroke-linecap="round" stroke-miterlimit="4" stroke-width="1.3333" d="M8.092 12.698c1.053 1.053 1.053 2.761 0 3.815s-2.761 1.053-3.815 0c-1.053-1.053-1.053-2.761 0-3.815s2.761-1.053 3.815 0z"></path>
<path fill="none" stroke="currentColor" stroke-linejoin="round" stroke-linecap="round" stroke-miterlimit="4" stroke-width="1.3333" d="M30.667 25.333v-1.461c0-1.841-1.492-3.333-3.333-3.333h-1.068"></path>
<path fill="none" stroke="currentColor" stroke-linejoin="round" stroke-linecap="round" stroke-miterlimit="4" stroke-width="1.3333" d="M1.333 25.333v-1.461c0-1.841 1.492-3.333 3.333-3.333h1.068"></path>
<path fill="none" stroke="currentColor" stroke-linejoin="round" stroke-linecap="round" stroke-miterlimit="4" stroke-width="1.3333" d="M23.119 25.333v-2.135c0-2.577-2.089-4.667-4.667-4.667h-4.905c-2.577 0-4.667 2.089-4.667 4.667v2.135"></path>
</symbol>
<symbol id="i-network" viewBox="0 0 32 32">
<path fill="none" stroke="currentColor" stroke-linejoin="round" stroke-linecap="round" stroke-miterlimit="4" stroke-width="1.3333" d="M12 14c1.104 0 2 0.896 2 2s-0.896 2-2 2c-1.104 0-2-0.896-2-2s0.896-2 2-2z"></path>
<path fill="none" stroke="currentColor" stroke-linejoin="round" stroke-linecap="round" stroke-miterlimit="4" stroke-width="1.3333" d="M21.587 10.667c0 1.104-0.896 2-2 2s-2-0.896-2-2c0-1.104 0.896-2 2-2s2 0.896 2 2z"></path>
<path fill="none" stroke="currentColor" stroke-linejoin="round" stroke-linecap="round" stroke-miterlimit="4" stroke-width="1.3333" d="M28.759 21.333c0 1.104-0.896 2-2 2s-2-0.896-2-2c0-1.104 0.896-2 2-2s2 0.896 2 2z"></path>
<path fill="none" stroke="currentColor" stroke-linejoin="round" stroke-linecap="round" stroke-miterlimit="4" stroke-width="1.3333" d="M28 16h-14"></path>
<path fill="none" stroke="currentColor" stroke-linejoin="round" stroke-linecap="round" stroke-miterlimit="4" stroke-width="1.3333" d="M10 16h-6"></path>
<path fill="none" stroke="currentColor" stroke-linejoin="round" stroke-linecap="round" stroke-miterlimit="4" stroke-width="1.3333" d="M24.76 21.333h-19.52"></path>
<path fill="none" stroke="currentColor" stroke-linejoin="round" stroke-linecap="round" stroke-miterlimit="4" stroke-width="1.3333" d="M17.586 10.667h-12.347"></path>
<path fill="none" stroke="currentColor" stroke-linejoin="round" stroke-linecap="round" stroke-miterlimit="4" stroke-width="1.3333" d="M26.76 10.667h-5.173"></path>
<path fill="none" stroke="currentColor" stroke-linejoin="round" stroke-linecap="round" stroke-miterlimit="4" stroke-width="1.3333" d="M19.842 12.652c0.103 1.063 0.159 2.185 0.159 3.348 0 6.628-1.791 12-4 12-1.983 0-3.627-4.325-3.944-10.001"></path>
<path fill="none" stroke="currentColor" stroke-linejoin="round" stroke-linecap="round" stroke-miterlimit="4" stroke-width="1.3333" d="M19.176 8.708c-0.731-2.861-1.881-4.708-3.176-4.708-1.981 0-3.627 4.325-3.944 10"></path>
<path fill="none" stroke="currentColor" stroke-linejoin="round" stroke-linecap="round" stroke-miterlimit="4" stroke-width="1.3333" d="M27.489 19.468c0.331-1.099 0.511-2.261 0.511-3.468 0-6.628-5.372-12-12-12s-12 5.372-12 12c0 6.628 5.372 12 12 12 3.996 0 7.533-1.955 9.713-4.957"></path>
</symbol>
<symbol id="i-wrench" viewBox="0 0 32 32">
<path fill="none" stroke="currentColor" stroke-linejoin="round" stroke-linecap="round" stroke-miterlimit="4" stroke-width="1.3333" d="M19.468 10.007l3.411-3.411c0.045-0.045 0.031-0.125-0.028-0.151-1.936-0.828-4.315-0.481-5.911 1.115-1.549 1.549-1.957 3.752-1.223 5.627l-5.111 5.111c-0.844 0.844-0.844 2.213 0 3.059 0.844 0.844 2.213 0.844 3.059 0l5.152-5.152c1.876 0.733 4.077 0.327 5.627-1.223 1.599-1.599 2.023-3.981 1.117-5.917-0.027-0.056-0.104-0.071-0.149-0.027l-3.497 3.416-2.447-2.447z"></path>
<path fill="none" stroke="currentColor" stroke-linejoin="round" stroke-linecap="round" stroke-miterlimit="4" stroke-width="1.3333" d="M14.667 3.404c-6.368 0.667-11.333 6.051-11.333 12.596 0 6.996 5.671 12.667 12.667 12.667 6.545 0 11.929-4.965 12.596-11.333"></path>
</symbol>
<symbol id="i-cursor" viewBox="0 0 32 32">
<path fill="none" stroke="currentColor" stroke-linejoin="round" stroke-linecap="round" stroke-miterlimit="4" stroke-width="1.3333" d="M14.488 7.327l-0.007 0.007 0.007 0.007 0.007-0.007-0.007-0.007z"></path>
<path fill="none" stroke="currentColor" stroke-linejoin="round" stroke-linecap="round" stroke-miterlimit="4" stroke-width="1.3333" d="M9.333 25.333h-2.667c-0.707 0-1.386-0.281-1.886-0.781s-0.781-1.178-0.781-1.886v-16c0-0.707 0.281-1.386 0.781-1.886s1.178-0.781 1.886-0.781h18.667c0.707 0 1.386 0.281 1.886 0.781s0.781 1.178 0.781 1.886v6.667"></path>
<path fill="none" stroke="currentColor" stroke-linejoin="round" stroke-linecap="round" stroke-miterlimit="4" stroke-width="1.3333" d="M11.102 7.327l-0.007 0.007 0.007 0.007 0.007-0.007-0.007-0.007z"></path>
<path fill="none" stroke="currentColor" stroke-linejoin="round" stroke-linecap="round" stroke-miterlimit="4" stroke-width="1.3333" d="M7.705 7.32l-0.007 0.007 0.007 0.007 0.007-0.007-0.007-0.007z"></path>
<path fill="none" stroke="currentColor" stroke-linejoin="round" stroke-linecap="round" stroke-miterlimit="4" stroke-width="1.3333" d="M24.741 28h-6.005c-0.439 0-0.871-0.108-1.258-0.316s-0.717-0.507-0.961-0.872l-2.836-4.254c-0.266-0.399-0.386-0.878-0.338-1.355s0.258-0.923 0.597-1.262v0c0.193-0.193 0.421-0.345 0.673-0.45s0.521-0.158 0.794-0.158c0.272 0 0.542 0.054 0.794 0.158s0.48 0.257 0.673 0.45l1.125 1.125v-7.066c0-0.53 0.211-1.039 0.586-1.414s0.884-0.586 1.414-0.586c0.53 0 1.039 0.211 1.414 0.586s0.586 0.884 0.586 1.414v3.351l3.762 0.614c0.681 0.111 1.292 0.482 1.706 1.034s0.597 1.244 0.511 1.928l-0.592 4.737c-0.081 0.645-0.394 1.238-0.881 1.668s-1.115 0.668-1.765 0.668v0z"></path>
</symbol>
<symbol id="i-global" viewBox="0 0 32 32">
<path fill="none" stroke="currentColor" stroke-linejoin="round" stroke-linecap="round" stroke-miterlimit="4" stroke-width="1.3333" d="M16 28v0c-6.627 0-12-5.373-12-12s5.373-12 12-12c6.627 0 12 5.373 12 12"></path>
<path fill="none" stroke="currentColor" stroke-linejoin="round" stroke-linecap="round" stroke-miterlimit="4" stroke-width="1.3333" d="M4.681 12h22.493"></path>
<path fill="none" stroke="currentColor" stroke-linejoin="round" stroke-linecap="round" stroke-miterlimit="4" stroke-width="1.3333" d="M4.681 20h11.32"></path>
<path fill="none" stroke="currentColor" stroke-linejoin="round" stroke-linecap="round" stroke-miterlimit="4" stroke-width="1.3333" d="M21.333 16v-0c0.010-3.725-0.988-7.383-2.89-10.587v0c-0.776-1.349-2.499-1.814-3.849-1.038-0.432 0.248-0.79 0.606-1.038 1.038v0c-3.853 6.532-3.853 14.642 0 21.175v0c0.505 0.872 1.435 1.409 2.443 1.412"></path>
<path fill="none" stroke="currentColor" stroke-linejoin="round" stroke-linecap="round" stroke-miterlimit="4" stroke-width="1.3333" d="M24.333 29.333c2.761 0 5-2.239 5-5s-2.239-5-5-5c-2.761 0-5 2.239-5 5s2.239 5 5 5z"></path>
<path fill="none" stroke="currentColor" stroke-linejoin="round" stroke-linecap="round" stroke-miterlimit="4" stroke-width="1.3333" d="M24.709 26.333l1.003-2h-2.755l1.003-2"></path>
</symbol>
<symbol id="i-medal" viewBox="0 0 32 32">
<path fill="none" stroke="currentColor" stroke-linejoin="round" stroke-linecap="round" stroke-miterlimit="4" stroke-width="1.3333" d="M8.168 18.4l-4.168 4.267 3.333 2 2 3.333 5.199-5.46"></path>
<path fill="none" stroke="currentColor" stroke-linejoin="round" stroke-linecap="round" stroke-miterlimit="4" stroke-width="1.3333" d="M17.469 22.54l5.199 5.46 2-3.333 3.333-2-4.168-4.267"></path>
<path fill="none" stroke="currentColor" stroke-linejoin="round" stroke-linecap="round" stroke-miterlimit="4" stroke-width="1.3333" d="M22.6 6.734c3.645 3.645 3.645 9.554 0 13.199s-9.554 3.645-13.199 0c-3.645-3.645-3.645-9.554 0-13.199s9.554-3.645 13.199 0z"></path>
<path fill="none" stroke="currentColor" stroke-linejoin="round" stroke-linecap="round" stroke-miterlimit="4" stroke-width="1.3333" d="M15.999 16.779l2.396 1.259c0.467 0.245 1.012-0.151 0.923-0.671l-0.457-2.668 1.939-1.888c0.377-0.368 0.169-1.009-0.352-1.085l-2.679-0.389-1.197-2.428c-0.233-0.473-0.907-0.473-1.14 0l-1.197 2.428-2.68 0.391c-0.521 0.076-0.729 0.717-0.352 1.085l1.939 1.888-0.457 2.668c-0.089 0.52 0.456 0.916 0.923 0.671l2.393-1.26z"></path>
</symbol>
<symbol id="i-brush" viewBox="0 0 32 32">
<path fill="none" stroke="currentColor" stroke-linejoin="round" stroke-linecap="round" stroke-miterlimit="4" stroke-width="1.3333" d="M5.153 21.269l8.297-8.297 5.58 5.58-8.297 8.297c-1.541 1.541-4.039 1.541-5.58 0v0 0c-1.541-1.541-1.541-4.039 0-5.58v0z"></path>
<path fill="none" stroke="currentColor" stroke-linejoin="round" stroke-linecap="round" stroke-miterlimit="4" stroke-width="1.3333" d="M25.885 17.181l-6.859 1.372-5.58-5.58 1.372-6.859c0.273-1.369 1.569-2.286 2.951-2.088l0.141 0.020c2.535 0.363 4.884 1.537 6.695 3.348v0c1.811 1.811 2.985 4.16 3.348 6.695l0.020 0.141c0.198 1.382-0.719 2.677-2.088 2.951v0z"></path>
<path fill="none" stroke="currentColor" stroke-linejoin="round" stroke-linecap="round" stroke-miterlimit="4" stroke-width="1.3333" d="M8 24l2.667-2.667"></path>
</symbol>
<symbol id="i-chicken" viewBox="0 0 32 32">
<path fill="none" stroke="currentColor" stroke-linejoin="round" stroke-linecap="round" stroke-miterlimit="4" stroke-width="1.3333" d="M25.851 15.468c-4.658-4.658-10.758-6.11-13.625-3.243s-1.415 8.967 3.243 13.625v0c2.867 2.867 7.515 2.867 10.382 0s2.867-7.515 0-10.382v0 0z"></path>
<path fill="none" stroke="currentColor" stroke-linejoin="round" stroke-linecap="round" stroke-miterlimit="4" stroke-width="1.3333" d="M11.134 13.96l-2.573-2.573h-2.227c-1.285 0-2.327-1.042-2.327-2.327s1.042-2.327 2.327-2.327h0.4v-0.4c0-1.285 1.042-2.327 2.327-2.327s2.327 1.042 2.327 2.327c0 0 0 0 0 0v2.227l2.573 2.573"></path>
</symbol>
<symbol id="i-cloth" viewBox="0 0 32 32">
<path fill="none" stroke="currentColor" stroke-linejoin="round" stroke-linecap="round" stroke-miterlimit="4" stroke-width="1.3333" d="M16 13.333v-2.79l1.843-1.024c0.452-0.251 0.828-0.618 1.090-1.063s0.4-0.953 0.4-1.469c-0.052-0.841-0.435-1.626-1.064-2.186s-1.455-0.847-2.295-0.801c-0.758-0.031-1.503 0.203-2.107 0.662s-1.028 1.116-1.2 1.855"></path>
<path fill="none" stroke="currentColor" stroke-linejoin="round" stroke-linecap="round" stroke-miterlimit="4" stroke-width="1.3333" d="M9.333 22h13.333c0.354 0 0.693 0.14 0.943 0.39s0.39 0.589 0.39 0.943v4.667h-16v-4.667c0-0.354 0.14-0.693 0.391-0.943s0.589-0.39 0.943-0.39z"></path>
<path fill="none" stroke="currentColor" stroke-linejoin="round" stroke-linecap="round" stroke-miterlimit="4" stroke-width="1.3333" d="M24 24h1.651c0.504 0.003 0.996-0.159 1.401-0.459s0.702-0.724 0.846-1.207 0.127-1-0.047-1.473c-0.175-0.473-0.498-0.877-0.922-1.15l-8.958-5.795c-0.587-0.38-1.272-0.582-1.971-0.582s-1.384 0.202-1.971 0.582l-8.958 5.795c-0.423 0.274-0.747 0.677-0.921 1.15s-0.191 0.99-0.047 1.473 0.441 0.907 0.846 1.207c0.405 0.3 0.896 0.461 1.401 0.459h1.651"></path>
</symbol>
<symbol id="i-ads" viewBox="0 0 32 32">
<path fill="none" stroke="currentColor" stroke-linejoin="round" stroke-linecap="round" stroke-miterlimit="4" stroke-width="1.3333" d="M25.333 27.903h-18.667c-1.473 0-2.667-1.193-2.667-2.667v-18.472c0-1.473 1.193-2.667 2.667-2.667h18.667c1.473 0 2.667 1.193 2.667 2.667v18.473c0 1.472-1.193 2.665-2.667 2.665z"></path>
<path fill="none" stroke="currentColor" stroke-linejoin="round" stroke-linecap="round" stroke-miterlimit="4" stroke-width="1.3333" d="M10.838 9.161c0.649 0.649 0.649 1.702 0 2.351s-1.702 0.649-2.351 0c-0.649-0.649-0.649-1.702 0-2.351s1.702-0.649 2.351 0z"></path>
<path fill="none" stroke="currentColor" stroke-linejoin="round" stroke-linecap="round" stroke-miterlimit="4" stroke-width="1.3333" d="M16 8h8"></path>
<path fill="none" stroke="currentColor" stroke-linejoin="round" stroke-linecap="round" stroke-miterlimit="4" stroke-width="1.3333" d="M16 12h8"></path>
<path fill="none" stroke="currentColor" stroke-linejoin="round" stroke-linecap="round" stroke-miterlimit="4" stroke-width="1.3333" d="M4 16h24"></path>
</symbol>
<symbol id="i-eye" viewBox="0 0 32 32">
<path fill="none" stroke="currentColor" stroke-linejoin="round" stroke-linecap="round" stroke-miterlimit="4" stroke-width="1.3333" d="M18.829 13.173c1.561 1.561 1.561 4.096 0 5.66-1.561 1.561-4.096 1.561-5.66 0-1.561-1.561-1.561-4.096 0-5.66 1.564-1.564 4.097-1.564 5.66 0z"></path>
<path fill="none" stroke="currentColor" stroke-linejoin="round" stroke-linecap="round" stroke-miterlimit="4" stroke-width="1.3333" d="M28 21.333l-4 4-2.667-2.667"></path>
<path fill="none" stroke="currentColor" stroke-linejoin="round" stroke-linecap="round" stroke-miterlimit="4" stroke-width="1.3333" d="M16 25.333c-4.921 0-9.385-2.655-11.405-6.784-0.392-0.801-0.595-1.671-0.595-2.549s0.203-1.748 0.595-2.549c2.020-4.129 6.484-6.784 11.405-6.784s9.385 2.655 11.405 6.784c0.392 0.801 0.595 1.671 0.595 2.549"></path>
</symbol>
<symbol id="i-graph" viewBox="0 0 32 32">
<path fill="none" stroke="currentColor" stroke-linejoin="round" stroke-linecap="round" stroke-miterlimit="4" stroke-width="1.3333" d="M4.399 25.715c0.395 0.827 1.060 1.491 1.885 1.885"></path>
<path fill="none" stroke="currentColor" stroke-linejoin="round" stroke-linecap="round" stroke-miterlimit="4" stroke-width="1.3333" d="M9.72 28h1.893"></path>
<path fill="none" stroke="currentColor" stroke-linejoin="round" stroke-linecap="round" stroke-miterlimit="4" stroke-width="1.3333" d="M27.601 25.715c-0.395 0.827-1.060 1.491-1.885 1.885"></path>
<path fill="none" stroke="currentColor" stroke-linejoin="round" stroke-linecap="round" stroke-miterlimit="4" stroke-width="1.3333" d="M22.28 28h-1.893"></path>
<path fill="none" stroke="currentColor" stroke-linejoin="round" stroke-linecap="round" stroke-miterlimit="4" stroke-width="1.3333" d="M15.054 28h1.893"></path>
<path fill="none" stroke="currentColor" stroke-linejoin="round" stroke-linecap="round" stroke-miterlimit="4" stroke-width="1.3333" d="M28 22.28v-1.893"></path>
<path fill="none" stroke="currentColor" stroke-linejoin="round" stroke-linecap="round" stroke-miterlimit="4" stroke-width="1.3333" d="M25.715 4.4c0.827 0.395 1.491 1.060 1.885 1.885"></path>
<path fill="none" stroke="currentColor" stroke-linejoin="round" stroke-linecap="round" stroke-miterlimit="4" stroke-width="1.3333" d="M28 9.72v1.893"></path>
<path fill="none" stroke="currentColor" stroke-linejoin="round" stroke-linecap="round" stroke-miterlimit="4" stroke-width="1.3333" d="M28 16.947v-1.893"></path>
<path fill="none" stroke="currentColor" stroke-linejoin="round" stroke-linecap="round" stroke-miterlimit="4" stroke-width="1.3333" d="M22.28 4h-1.893"></path>
<path fill="none" stroke="currentColor" stroke-linejoin="round" stroke-linecap="round" stroke-miterlimit="4" stroke-width="1.3333" d="M4.399 6.285c0.395-0.827 1.059-1.491 1.885-1.885"></path>
<path fill="none" stroke="currentColor" stroke-linejoin="round" stroke-linecap="round" stroke-miterlimit="4" stroke-width="1.3333" d="M9.72 4h1.893"></path>
<path fill="none" stroke="currentColor" stroke-linejoin="round" stroke-linecap="round" stroke-miterlimit="4" stroke-width="1.3333" d="M16.947 4h-1.893"></path>
<path fill="none" stroke="currentColor" stroke-linejoin="round" stroke-linecap="round" stroke-miterlimit="4" stroke-width="1.3333" d="M4 9.72v1.893"></path>
<path fill="none" stroke="currentColor" stroke-linejoin="round" stroke-linecap="round" stroke-miterlimit="4" stroke-width="1.3333" d="M4 22.28v-1.893"></path>
<path fill="none" stroke="currentColor" stroke-linejoin="round" stroke-linecap="round" stroke-miterlimit="4" stroke-width="1.3333" d="M4 15.053v1.893"></path>
<path fill="none" stroke="currentColor" stroke-linejoin="round" stroke-linecap="round" stroke-miterlimit="4" stroke-width="1.3333" d="M20.667 22h-2.667v-10.667c0-0.736 0.597-1.333 1.333-1.333h1.333c0.736 0 1.333 0.597 1.333 1.333v9.333c0 0.736-0.597 1.333-1.333 1.333z"></path>
<path fill="none" stroke="currentColor" stroke-linejoin="round" stroke-linecap="round" stroke-miterlimit="4" stroke-width="1.3333" d="M18 22h-4v-6.667c0-0.736 0.597-1.333 1.333-1.333h2.667"></path>
<path fill="none" stroke="currentColor" stroke-linejoin="round" stroke-linecap="round" stroke-miterlimit="4" stroke-width="1.3333" d="M14 22h-2.667c-0.736 0-1.333-0.597-1.333-1.333v-1.333c0-0.736 0.597-1.333 1.333-1.333h2.667"></path>
</symbol>
<symbol id="i-speed" viewBox="0 0 32 32">
<path fill="none" stroke="currentColor" stroke-linejoin="round" stroke-linecap="round" stroke-miterlimit="4" stroke-width="1.3333" d="M16 19c1.289 0 2.333-1.045 2.333-2.333s-1.045-2.333-2.333-2.333c-1.289 0-2.333 1.045-2.333 2.333s1.045 2.333 2.333 2.333z"></path>
<path fill="none" stroke="currentColor" stroke-linejoin="round" stroke-linecap="round" stroke-miterlimit="4" stroke-width="1.3333" d="M16 8.667v1.333"></path>
<path fill="none" stroke="currentColor" stroke-linejoin="round" stroke-linecap="round" stroke-miterlimit="4" stroke-width="1.3333" d="M10.347 11.013l0.933 0.947"></path>
<path fill="none" stroke="currentColor" stroke-linejoin="round" stroke-linecap="round" stroke-miterlimit="4" stroke-width="1.3333" d="M17.653 15.013l4-4"></path>
<path fill="none" stroke="currentColor" stroke-linejoin="round" stroke-linecap="round" stroke-miterlimit="4" stroke-width="1.3333" d="M11.333 22.667h9.333"></path>
<path fill="none" stroke="currentColor" stroke-linejoin="round" stroke-linecap="round" stroke-miterlimit="4" stroke-width="1.3333" d="M24 16.667h-1.333"></path>
<path fill="none" stroke="currentColor" stroke-linejoin="round" stroke-linecap="round" stroke-miterlimit="4" stroke-width="1.3333" d="M9.333 16.667h-1.333"></path>
<path fill="none" stroke="currentColor" stroke-linejoin="round" stroke-linecap="round" stroke-miterlimit="4" stroke-width="1.3333" d="M15.625 4.667v0c-6.441 0.269-11.547 5.529-11.625 11.975v0c-0.012 3.867 1.845 7.502 4.985 9.759v0c0.889 0.621 1.95 0.947 3.035 0.933h7.971c1.060 0.016 2.098-0.3 2.969-0.903v0c5.4-3.836 6.667-11.324 2.831-16.723-2.329-3.278-6.146-5.171-10.165-5.041v-0z"></path>
</symbol>
</defs>
</svg>
