<svg aria-hidden="true" style="position: absolute; width: 0; height: 0; overflow: hidden;" version="1.1" xmlns="http://www.w3.org/2000/svg" xmlns:xlink="http://www.w3.org/1999/xlink">
<defs>
<symbol id="i-checkmark" viewBox="0 0 32 32">
<path fill="none" stroke="currentColor" stroke-linejoin="round" stroke-linecap="round" stroke-miterlimit="4" stroke-width="1.3" d="M20.271 13.484l-5.337 5.333-3.208-3.199"></path>
<path fill="none" stroke="currentColor" stroke-linejoin="round" stroke-linecap="round" stroke-miterlimit="4" stroke-width="1.3" d="M21.333 4h-10.667c-3.682 0-6.667 2.985-6.667 6.667v10.667c0 3.682 2.985 6.667 6.667 6.667h10.667c3.682 0 6.667-2.985 6.667-6.667v-10.667c0-3.682-2.985-6.667-6.667-6.667z"></path>
</symbol>
<symbol id="i-edit" viewBox="0 0 32 32">
<path fill="none" stroke="currentColor" stroke-linejoin="round" stroke-linecap="round" stroke-miterlimit="4" stroke-width="1.3" d="M18.727 18.667h-2.727v-2.727c-0-0.138 0.027-0.276 0.080-0.404s0.131-0.244 0.229-0.342l4.218-4.218c0.098-0.098 0.214-0.176 0.341-0.229s0.265-0.080 0.403-0.081c0.138-0 0.275 0.027 0.403 0.080s0.244 0.13 0.342 0.228l1.674 1.674c0.098 0.098 0.176 0.214 0.229 0.341s0.080 0.265 0.081 0.403c0 0.138-0.027 0.275-0.080 0.403s-0.13 0.244-0.228 0.342l-4.22 4.22c-0.198 0.198-0.466 0.309-0.746 0.309v0z"></path>
<path fill="none" stroke="currentColor" stroke-linejoin="round" stroke-linecap="round" stroke-miterlimit="4" stroke-width="1.3" d="M19.219 25.333h4.781c1.061 0 2.078-0.421 2.828-1.172s1.172-1.768 1.172-2.828v-13.333c0-1.061-0.421-2.078-1.172-2.828s-1.768-1.172-2.828-1.172h-16c-1.061 0-2.078 0.421-2.828 1.172s-1.172 1.768-1.172 2.828v13.333c0 1.061 0.421 2.078 1.172 2.828s1.768 1.172 2.828 1.172h4.781"></path>
<path fill="none" stroke="currentColor" stroke-linejoin="round" stroke-linecap="round" stroke-miterlimit="4" stroke-width="1.3" d="M19.219 25.333l-2.276 2.276c-0.25 0.25-0.589 0.391-0.943 0.391s-0.693-0.141-0.943-0.391l-2.276-2.276"></path>
<path fill="none" stroke="currentColor" stroke-linejoin="round" stroke-linecap="round" stroke-miterlimit="4" stroke-width="1.3" d="M8.066 18.666c0 0.013-0.004 0.026-0.011 0.037s-0.018 0.019-0.030 0.025c-0.012 0.005-0.026 0.006-0.038 0.004s-0.025-0.009-0.034-0.018-0.016-0.021-0.018-0.034c-0.003-0.013-0.001-0.026 0.004-0.039s0.014-0.023 0.025-0.030c0.011-0.007 0.024-0.011 0.037-0.011 0.009 0 0.017 0.002 0.026 0.005s0.015 0.008 0.022 0.015c0.006 0.006 0.011 0.013 0.014 0.022s0.005 0.017 0.005 0.026"></path>
<path fill="none" stroke="currentColor" stroke-linejoin="round" stroke-linecap="round" stroke-miterlimit="4" stroke-width="1.3" d="M12.066 18.666c0 0.013-0.004 0.026-0.011 0.037s-0.018 0.019-0.030 0.025c-0.012 0.005-0.026 0.006-0.039 0.004s-0.025-0.009-0.034-0.018-0.016-0.021-0.018-0.034c-0.003-0.013-0.001-0.026 0.004-0.039s0.014-0.023 0.025-0.030c0.011-0.007 0.024-0.011 0.037-0.011 0.009 0 0.017 0.002 0.026 0.005s0.015 0.008 0.022 0.015c0.006 0.006 0.011 0.013 0.014 0.022s0.005 0.017 0.005 0.026"></path>
</symbol>
<symbol id="i-hand" viewBox="0 0 32 32">
<path fill="none" stroke="currentColor" stroke-linejoin="round" stroke-linecap="round" stroke-miterlimit="4" stroke-width="1.3" d="M16 18.667h11.333c1.104 0 2-0.896 2-2s-0.896-2-2-2h-11.333"></path>
<path fill="none" stroke="currentColor" stroke-linejoin="round" stroke-linecap="round" stroke-miterlimit="4" stroke-width="1.3" d="M24.667 18.667c1.104 0 2 0.896 2 2s-0.896 2-2 2h-8.667"></path>
<path fill="none" stroke="currentColor" stroke-linejoin="round" stroke-linecap="round" stroke-miterlimit="4" stroke-width="1.3" d="M24.667 14.666c1.104 0 2-0.896 2-2s-0.896-2-2-2h-11.333l2.535-2.535c0.809-0.809 0.809-2.121 0-2.931-0.699-0.699-1.793-0.807-2.615-0.259l-7.024 4.683c-2.225 1.484-3.563 3.981-3.563 6.656v2.385c0 4.419 3.581 8 8 8h11.333c1.104 0 2-0.896 2-2s-0.896-2-2-2"></path>
</symbol>
<symbol id="i-search" viewBox="0 0 32 32">
<path fill="none" stroke="currentColor" stroke-linejoin="round" stroke-linecap="round" stroke-miterlimit="4" stroke-width="1.3" d="M28.001 22.667l-4.027-4.027"></path>
<path fill="none" stroke="currentColor" stroke-linejoin="round" stroke-linecap="round" stroke-miterlimit="4" stroke-width="1.3" d="M4 18.667h6.667"></path>
<path fill="none" stroke="currentColor" stroke-linejoin="round" stroke-linecap="round" stroke-miterlimit="4" stroke-width="1.3" d="M4 24h10.667"></path>
<path fill="none" stroke="currentColor" stroke-linejoin="round" stroke-linecap="round" stroke-miterlimit="4" stroke-width="1.3" d="M4 8h10.667"></path>
<path fill="none" stroke="currentColor" stroke-linejoin="round" stroke-linecap="round" stroke-miterlimit="4" stroke-width="1.3" d="M4 13.333h6.667"></path>
<path fill="none" stroke="currentColor" stroke-linejoin="round" stroke-linecap="round" stroke-miterlimit="4" stroke-width="1.3" d="M23.967 12.034c1.822 1.822 1.822 4.777 0 6.6s-4.777 1.822-6.6 0c-1.822-1.823-1.822-4.777 0-6.6s4.777-1.822 6.6 0"></path>
</symbol>
<symbol id="i-send" viewBox="0 0 32 32">
<path fill="none" stroke="currentColor" stroke-linejoin="round" stroke-linecap="round" stroke-miterlimit="4" stroke-width="1.3" d="M19.525 26.543l7.275-19.627c0.396-1.069-0.645-2.109-1.713-1.713l-19.633 7.28c-1.228 0.456-1.132 2.224 0.139 2.543l9.112 2.289 2.276 9.088c0.32 1.272 2.089 1.369 2.545 0.14v0z"></path>
<path fill="none" stroke="currentColor" stroke-linejoin="round" stroke-linecap="round" stroke-miterlimit="4" stroke-width="1.3" d="M26.492 5.508l-11.787 11.813"></path>
</symbol>
<symbol id="i-suitcase" viewBox="0 0 32 32">
<path fill="none" stroke="currentColor" stroke-linejoin="round" stroke-linecap="round" stroke-miterlimit="4" stroke-width="1.3" d="M25.333 28h-18.667c-1.473 0-2.667-1.194-2.667-2.667v-12c0-1.473 1.194-2.667 2.667-2.667h18.667c1.473 0 2.667 1.194 2.667 2.667v12c0 1.473-1.194 2.667-2.667 2.667 0 0 0 0 0 0v0z"></path>
<path fill="none" stroke="currentColor" stroke-linejoin="round" stroke-linecap="round" stroke-miterlimit="4" stroke-width="1.3" d="M21.333 28v-20c0-1.473-1.194-2.667-2.667-2.667h-5.333c-1.473 0-2.667 1.194-2.667 2.667v0 20"></path>
</symbol>
<symbol id="i-shield" viewBox="0 0 32 32">
<path fill="none" stroke="currentColor" stroke-linejoin="round" stroke-linecap="round" stroke-miterlimit="4" stroke-width="1.3" d="M17.333 10.667l-4 4 5.333 2.667-4 4"></path>
<path fill="none" stroke="currentColor" stroke-linejoin="round" stroke-linecap="round" stroke-miterlimit="4" stroke-width="1.3" d="M26.667 14.909c0 6.055-4.551 11.716-10.667 13.091-6.116-1.375-10.667-7.036-10.667-13.091v-4.756c0-1.083 0.655-2.059 1.657-2.468l6.667-2.728c1.501-0.615 3.184-0.615 4.685 0l6.667 2.728c1.003 0.411 1.657 1.385 1.657 2.468v4.756z"></path>
</symbol>
<symbol id="i-browser" viewBox="0 0 32 32">
<path fill="none" stroke="currentColor" stroke-linejoin="round" stroke-linecap="round" stroke-miterlimit="4" stroke-width="1.3" d="M4 10.667h24"></path>
<path fill="none" stroke="currentColor" stroke-linejoin="round" stroke-linecap="round" stroke-miterlimit="4" stroke-width="1.3" d="M10 22.667v-1.973"></path>
<path fill="none" stroke="currentColor" stroke-linejoin="round" stroke-linecap="round" stroke-miterlimit="4" stroke-width="1.3" d="M14 22.667v-6.333"></path>
<path fill="none" stroke="currentColor" stroke-linejoin="round" stroke-linecap="round" stroke-miterlimit="4" stroke-width="1.3" d="M18 22.666v-2.76"></path>
<path fill="none" stroke="currentColor" stroke-linejoin="round" stroke-linecap="round" stroke-miterlimit="4" stroke-width="1.3" d="M22 22.667v-5.6"></path>
<path fill="none" stroke="currentColor" stroke-linejoin="round" stroke-linecap="round" stroke-miterlimit="4" stroke-width="1.3" d="M25.333 28h-18.667c-1.473 0-2.667-1.193-2.667-2.667v-18.667c0-1.473 1.193-2.667 2.667-2.667h18.667c1.473 0 2.667 1.193 2.667 2.667v18.667c0 1.473-1.193 2.667-2.667 2.667z"></path>
<path fill="currentColor" d="M8.444 7.333c0 0.368-0.298 0.667-0.667 0.667s-0.667-0.298-0.667-0.667c0-0.368 0.298-0.667 0.667-0.667s0.667 0.298 0.667 0.667z"></path>
<path fill="currentColor" d="M12 7.333c0 0.368-0.298 0.667-0.667 0.667s-0.667-0.298-0.667-0.667c0-0.368 0.298-0.667 0.667-0.667s0.667 0.298 0.667 0.667z"></path>
<path fill="currentColor" d="M15.556 7.333c0 0.368-0.298 0.667-0.667 0.667s-0.667-0.298-0.667-0.667c0-0.368 0.298-0.667 0.667-0.667s0.667 0.298 0.667 0.667z"></path>
</symbol>
</defs>
</svg>
