<svg aria-hidden="true" style="position: absolute; width: 0; height: 0; overflow: hidden;" version="1.1" xmlns="http://www.w3.org/2000/svg" xmlns:xlink="http://www.w3.org/1999/xlink">
<defs>
<symbol id="i-user-search" viewBox="0 0 32 32">
<path fill="none" stroke="currentColor" stroke-linejoin="round" stroke-linecap="round" stroke-miterlimit="4" stroke-width="1.3333" d="M28 28l-2.459-2.459"></path>
<path fill="none" stroke="currentColor" stroke-linejoin="round" stroke-linecap="round" stroke-miterlimit="4" stroke-width="1.3333" d="M21.587 16v0c3.085 0 5.587 2.501 5.587 5.587v0c-0.046 3.066-2.52 5.541-5.587 5.587v0c-3.085 0-5.587-2.501-5.587-5.587s2.501-5.587 5.587-5.587"></path>
<path fill="none" stroke="currentColor" stroke-linejoin="round" stroke-linecap="round" stroke-miterlimit="4" stroke-width="1.3333" d="M4 21.333v2.667c0 1.473 1.194 2.667 2.667 2.667h5.333"></path>
<path fill="none" stroke="currentColor" stroke-linejoin="round" stroke-linecap="round" stroke-miterlimit="4" stroke-width="1.3333" d="M28 13.333v-6.667c0-1.473-1.194-2.667-2.667-2.667h-8"></path>
<path fill="none" stroke="currentColor" stroke-linejoin="round" stroke-linecap="round" stroke-miterlimit="4" stroke-width="1.3333" d="M23.485 20.609l-2.375 2.373-1.427-1.423"></path>
<path fill="none" stroke="currentColor" stroke-linejoin="round" stroke-linecap="round" stroke-miterlimit="4" stroke-width="1.3333" d="M13.333 15.333h-8.667c-0.368 0-0.667-0.299-0.667-0.667v0-0.541c0.004-1.54 1.252-2.788 2.792-2.792h4.416c1.54 0.004 2.788 1.252 2.792 2.792v0.541c0 0.368-0.299 0.667-0.667 0.667v0 0z"></path>
<path fill="none" stroke="currentColor" stroke-linejoin="round" stroke-linecap="round" stroke-miterlimit="4" stroke-width="1.3333" d="M9 8v0c-1.473 0-2.667-1.194-2.667-2.667s1.194-2.667 2.667-2.667c1.469 0 2.661 1.187 2.667 2.656v0c0.006 1.473-1.183 2.671-2.656 2.677-0.004 0-0.007 0-0.011 0v0z"></path>
</symbol>
<symbol id="i-community" viewBox="0 0 32 32">
<path fill="none" stroke="currentColor" stroke-linejoin="round" stroke-linecap="round" stroke-miterlimit="4" stroke-width="1.3333" d="M2.667 23.333v-0.541c0.002-0.74 0.297-1.449 0.82-1.972s1.232-0.818 1.972-0.82h3.749c0.74 0.002 1.449 0.297 1.972 0.82s0.818 1.232 0.82 1.972v0.541c0 0.177-0.070 0.346-0.195 0.471s-0.295 0.195-0.471 0.195h-8c-0.177 0-0.346-0.070-0.471-0.195s-0.195-0.295-0.195-0.471z"></path>
<path fill="none" stroke="currentColor" stroke-linejoin="round" stroke-linecap="round" stroke-miterlimit="4" stroke-width="1.3333" d="M17.157 12v1.999c0 0.126 0.036 0.25 0.103 0.356s0.164 0.192 0.277 0.246 0.241 0.075 0.366 0.060c0.125-0.015 0.244-0.065 0.341-0.145l3.089-2.516h3.157c0.707 0 1.386-0.281 1.886-0.781s0.781-1.178 0.781-1.886v-4c0-0.707-0.281-1.386-0.781-1.886s-1.178-0.781-1.886-0.781h-8.49c-0.707 0-1.386 0.281-1.886 0.781s-0.781 1.178-0.781 1.886v4c0 0.707 0.281 1.386 0.781 1.886s1.178 0.781 1.886 0.781l1.157 0z"></path>
<path fill="none" stroke="currentColor" stroke-linejoin="round" stroke-linecap="round" stroke-miterlimit="4" stroke-width="1.3333" d="M7.333 16.667c1.473 0 2.667-1.194 2.667-2.667s-1.194-2.667-2.667-2.667c-1.473 0-2.667 1.194-2.667 2.667s1.194 2.667 2.667 2.667z"></path>
<path fill="none" stroke="currentColor" stroke-linejoin="round" stroke-linecap="round" stroke-miterlimit="4" stroke-width="1.3333" d="M20 28.667v-0.541c0.002-0.74 0.297-1.449 0.82-1.972s1.232-0.818 1.972-0.82h3.749c0.74 0.002 1.449 0.297 1.972 0.82s0.818 1.232 0.82 1.972v0.541c0 0.177-0.070 0.346-0.195 0.471s-0.295 0.195-0.471 0.195h-8c-0.177 0-0.346-0.070-0.471-0.195s-0.195-0.295-0.195-0.471z"></path>
<path fill="none" stroke="currentColor" stroke-linejoin="round" stroke-linecap="round" stroke-miterlimit="4" stroke-width="1.3333" d="M24.667 22c1.473 0 2.667-1.194 2.667-2.667s-1.194-2.667-2.667-2.667c-1.473 0-2.667 1.194-2.667 2.667s1.194 2.667 2.667 2.667z"></path>
</symbol>
<symbol id="i-doc" viewBox="0 0 32 32">
<path fill="none" stroke="currentColor" stroke-linejoin="round" stroke-linecap="round" stroke-miterlimit="4" stroke-width="1.3333" d="M25.333 20v-9.563c0-0.707-0.281-1.385-0.781-1.885l-3.771-3.771c-0.5-0.5-1.179-0.781-1.885-0.781h-9.563c-1.473 0-2.667 1.193-2.667 2.667v18.667c0 1.473 1.193 2.667 2.667 2.667h8"></path>
<path fill="none" stroke="currentColor" stroke-linejoin="round" stroke-linecap="round" stroke-miterlimit="4" stroke-width="1.3333" d="M28 24l-4 4-2.667-2.667"></path>
<path fill="none" stroke="currentColor" stroke-linejoin="round" stroke-linecap="round" stroke-miterlimit="4" stroke-width="1.3333" d="M10.667 14.667h8"></path>
<path fill="none" stroke="currentColor" stroke-linejoin="round" stroke-linecap="round" stroke-miterlimit="4" stroke-width="1.3333" d="M10.667 18.667h8"></path>
<path fill="none" stroke="currentColor" stroke-linejoin="round" stroke-linecap="round" stroke-miterlimit="4" stroke-width="1.3333" d="M10.667 22.667h5.773"></path>
<path fill="none" stroke="currentColor" stroke-linejoin="round" stroke-linecap="round" stroke-miterlimit="4" stroke-width="1.3333" d="M25.333 10.667h-5.333c-0.736 0-1.333-0.597-1.333-1.333v-5.333"></path>
</symbol>
<symbol id="i-attention" viewBox="0 0 32 32">
<path fill="none" stroke="currentColor" stroke-linejoin="round" stroke-linecap="round" stroke-miterlimit="4" stroke-width="1.3333" d="M18.705 5.519l10.212 17.873c1.187 2.077-0.313 4.663-2.705 4.663h-20.424c-2.393 0-3.893-2.585-2.705-4.663l10.212-17.873c1.196-2.095 4.215-2.095 5.411 0v0z"></path>
<path fill="none" stroke="currentColor" stroke-linejoin="round" stroke-linecap="round" stroke-miterlimit="4" stroke-width="1.3333" d="M16.222 17.773v-4.44"></path>
<path fill="currentColor" d="M17.601 22c0 0.736-0.597 1.333-1.333 1.333s-1.333-0.597-1.333-1.333c0-0.736 0.597-1.333 1.333-1.333s1.333 0.597 1.333 1.333z"></path>
</symbol>
<symbol id="i-chart" viewBox="0 0 32 32">
<path fill="none" stroke="currentColor" stroke-linejoin="round" stroke-linecap="round" stroke-miterlimit="4" stroke-width="1.3333" d="M6.667 4h18.667c1.473 0 2.667 1.193 2.667 2.667v18.667c0 1.473-1.193 2.667-2.667 2.667h-18.667c-1.473 0-2.667-1.193-2.667-2.667v-18.667c0-1.473 1.193-2.667 2.667-2.667z"></path>
<path fill="none" stroke="currentColor" stroke-linejoin="round" stroke-linecap="round" stroke-miterlimit="4" stroke-width="1.3333" d="M9.333 23.333v-6.667"></path>
<path fill="none" stroke="currentColor" stroke-linejoin="round" stroke-linecap="round" stroke-miterlimit="4" stroke-width="1.3333" d="M13.774 23.333v-14.667"></path>
<path fill="none" stroke="currentColor" stroke-linejoin="round" stroke-linecap="round" stroke-miterlimit="4" stroke-width="1.3333" d="M18.212 23.333v-8.133"></path>
<path fill="none" stroke="currentColor" stroke-linejoin="round" stroke-linecap="round" stroke-miterlimit="4" stroke-width="1.3333" d="M22.667 23.333v-13.333"></path>
</symbol>
<symbol id="i-box-blank" viewBox="0 0 32 32">
<path fill="none" stroke="currentColor" stroke-linejoin="round" stroke-linecap="round" stroke-miterlimit="4" stroke-width="1.3333" d="M9.333 17.333h2.667"></path>
<path fill="none" stroke="currentColor" stroke-linejoin="round" stroke-linecap="round" stroke-miterlimit="4" stroke-width="1.3333" d="M10.667 4v5.333c0 0.354-0.14 0.693-0.39 0.943s-0.589 0.39-0.943 0.39h-5.333"></path>
<path fill="none" stroke="currentColor" stroke-linejoin="round" stroke-linecap="round" stroke-miterlimit="4" stroke-width="1.3333" d="M12 28h-4c-1.061 0-2.078-0.421-2.828-1.172s-1.172-1.768-1.172-2.828v-13.563c0-0.707 0.281-1.385 0.781-1.885l3.771-3.771c0.248-0.248 0.542-0.444 0.865-0.578s0.671-0.203 1.021-0.203h9.562c1.061 0 2.078 0.421 2.828 1.172s1.172 1.768 1.172 2.828v4"></path>
<path fill="none" stroke="currentColor" stroke-linejoin="round" stroke-linecap="round" stroke-miterlimit="4" stroke-width="1.3333" d="M9.333 21.333h1.333"></path>
<path fill="none" stroke="currentColor" stroke-linejoin="round" stroke-linecap="round" stroke-miterlimit="4" stroke-width="1.3333" d="M26.667 29.333h-9.167c-0.398 0-0.779-0.158-1.061-0.439s-0.439-0.663-0.439-1.061v-6.561c0-0.54 0.109-1.075 0.322-1.572l0.579-1.355c0.128-0.3 0.342-0.556 0.614-0.736s0.592-0.276 0.918-0.276h7.132c0.326 0 0.645 0.096 0.918 0.276s0.486 0.436 0.614 0.736l0.58 1.356c0.213 0.497 0.322 1.032 0.322 1.573v6.727c0 0.354-0.14 0.693-0.39 0.943s-0.589 0.39-0.943 0.39z"></path>
<path fill="none" stroke="currentColor" stroke-linejoin="round" stroke-linecap="round" stroke-miterlimit="4" stroke-width="1.3333" d="M22 17.333v4.512"></path>
<path fill="none" stroke="currentColor" stroke-linejoin="round" stroke-linecap="round" stroke-miterlimit="4" stroke-width="1.3333" d="M28 27.846v-4.667c0-0.354-0.14-0.693-0.39-0.943s-0.589-0.391-0.943-0.391h-9.333c-0.354 0-0.693 0.141-0.943 0.391s-0.39 0.589-0.39 0.943v4.667"></path>
</symbol>
<symbol id="i-up" viewBox="0 0 32 32">
<path fill="none" stroke="currentColor" stroke-linejoin="round" stroke-linecap="round" stroke-miterlimit="4" stroke-width="1.3333" d="M10.333 15.228v4.491"></path>
<path fill="none" stroke="currentColor" stroke-linejoin="round" stroke-linecap="round" stroke-miterlimit="4" stroke-width="1.3333" d="M13.528 18.877c0 0.298 0.118 0.583 0.329 0.794s0.496 0.329 0.794 0.329h4.696c0.185 0 0.367-0.046 0.529-0.133s0.302-0.213 0.404-0.367l1.2-1.803c0.123-0.185 0.188-0.402 0.188-0.624v-2.196c0-0.147-0.029-0.293-0.085-0.43s-0.139-0.26-0.243-0.364-0.228-0.187-0.364-0.243c-0.136-0.056-0.282-0.085-0.43-0.085h-2.077v-1.909c0-0.313-0.124-0.612-0.345-0.833s-0.521-0.345-0.834-0.345h-0.673c-0.194-0-0.385 0.050-0.554 0.145s-0.31 0.233-0.41 0.4l-1.804 3.008c-0.209 0.349-0.32 0.748-0.32 1.155v3.503z"></path>
<path fill="none" stroke="currentColor" stroke-linejoin="round" stroke-linecap="round" stroke-miterlimit="4" stroke-width="1.3333" d="M6.175 22.878l-0.842 3.789 3.789-0.842c2.462 1.725 5.482 2.465 8.462 2.073s5.706-1.887 7.639-4.189c1.933-2.303 2.932-5.246 2.801-8.25s-1.383-5.849-3.509-7.975-4.971-3.378-7.975-3.509c-3.004-0.131-5.947 0.869-8.25 2.801s-3.798 4.658-4.189 7.639c-0.392 2.981 0.348 6 2.073 8.462z"></path>
</symbol>
<symbol id="i-doc-1" viewBox="0 0 32 32">
<path fill="none" stroke="currentColor" stroke-linejoin="round" stroke-linecap="round" stroke-miterlimit="4" stroke-width="1.3333" d="M14.667 28h-6.963c-1.388-0.087-2.447-1.278-2.371-2.667v-18.667c-0.076-1.389 0.982-2.579 2.371-2.667h16.592c1.388 0.087 2.447 1.278 2.371 2.667v8"></path>
<path fill="none" stroke="currentColor" stroke-linejoin="round" stroke-linecap="round" stroke-miterlimit="4" stroke-width="1.3333" d="M10.667 18h4"></path>
<path fill="none" stroke="currentColor" stroke-linejoin="round" stroke-linecap="round" stroke-miterlimit="4" stroke-width="1.3333" d="M10.667 22.667h4"></path>
<path fill="none" stroke="currentColor" stroke-linejoin="round" stroke-linecap="round" stroke-miterlimit="4" stroke-width="1.3333" d="M24.923 22.341l-1.988 1.983-1.192-1.189"></path>
<path fill="none" stroke="currentColor" stroke-linejoin="round" stroke-linecap="round" stroke-miterlimit="4" stroke-width="1.3333" d="M26.527 18.667h-6.388c-0.813 0-1.473 0.659-1.473 1.473v6.388c0 0.813 0.659 1.473 1.473 1.473h6.388c0.813 0 1.473-0.659 1.473-1.473v-6.388c0-0.813-0.659-1.473-1.473-1.473z"></path>
<path fill="none" stroke="currentColor" stroke-linejoin="round" stroke-linecap="round" stroke-miterlimit="4" stroke-width="1.3333" d="M21.333 9.333l-4 4-3.619-2.667-3.048 2.667"></path>
<path fill="none" stroke="currentColor" stroke-linejoin="round" stroke-linecap="round" stroke-miterlimit="4" stroke-width="1.3333" d="M21.333 12v-2.667h-2.667"></path>
</symbol>
<symbol id="i-house" viewBox="0 0 32 32">
<path fill="none" stroke="currentColor" stroke-linejoin="round" stroke-linecap="round" stroke-miterlimit="4" stroke-width="1.3333" d="M4 14.107l10.265-8.798c0.483-0.414 1.099-0.642 1.735-0.642s1.252 0.228 1.735 0.642l10.265 8.798"></path>
<path fill="none" stroke="currentColor" stroke-linejoin="round" stroke-linecap="round" stroke-miterlimit="4" stroke-width="1.3333" d="M14.667 28h-10.667"></path>
<path fill="none" stroke="currentColor" stroke-linejoin="round" stroke-linecap="round" stroke-miterlimit="4" stroke-width="1.3333" d="M20.83 7.962v-2.962c0-0.265 0.105-0.52 0.293-0.707s0.442-0.293 0.707-0.293h3.455c0.265 0 0.52 0.105 0.707 0.293s0.293 0.442 0.293 0.707v7.638"></path>
<path fill="none" stroke="currentColor" stroke-linejoin="round" stroke-linecap="round" stroke-miterlimit="4" stroke-width="1.3333" d="M5.715 12.638v15.362"></path>
<path fill="none" stroke="currentColor" stroke-linejoin="round" stroke-linecap="round" stroke-miterlimit="4" stroke-width="1.3333" d="M22.223 17.333h-3.305c-0.42 0-0.823 0.167-1.12 0.464s-0.464 0.7-0.464 1.12v3.305c0 0.208 0.041 0.414 0.122 0.607s0.197 0.367 0.344 0.514l4.193 4.193c0.297 0.297 0.7 0.464 1.12 0.464s0.823-0.167 1.12-0.464l3.303-3.302c0.297-0.297 0.464-0.7 0.464-1.121s-0.167-0.823-0.464-1.121l-4.193-4.193c-0.147-0.147-0.322-0.265-0.514-0.344s-0.398-0.121-0.607-0.122v0z"></path>
<path fill="currentColor" d="M22 21c0 0.552-0.448 1-1 1s-1-0.448-1-1c0-0.552 0.448-1 1-1s1 0.448 1 1z"></path>
</symbol>
<symbol id="i-flattener" viewBox="0 0 32 32">
<path fill="none" stroke="currentColor" stroke-linejoin="round" stroke-linecap="round" stroke-miterlimit="4" stroke-width="1.3333" d="M11.113 14.211l-4.362 11.997c-0.087 0.238-0.104 0.497-0.049 0.744s0.179 0.475 0.359 0.654c0.179 0.179 0.406 0.304 0.654 0.359s0.506 0.038 0.744-0.049l11.997-4.362c0.211-0.077 0.399-0.205 0.547-0.374s0.251-0.372 0.299-0.591c0.049-0.219 0.041-0.447-0.022-0.662s-0.179-0.411-0.337-0.57l-7.634-7.634c-0.159-0.159-0.354-0.275-0.57-0.337s-0.443-0.070-0.662-0.022c-0.219 0.049-0.422 0.152-0.591 0.299s-0.297 0.336-0.374 0.547z"></path>
<path fill="none" stroke="currentColor" stroke-linejoin="round" stroke-linecap="round" stroke-miterlimit="4" stroke-width="1.3333" d="M18.363 13.031l6.267-6.267c0.45-0.45 0.703-1.061 0.703-1.697s-0.253-1.247-0.703-1.697v0c-0.223-0.223-0.487-0.4-0.779-0.52s-0.603-0.183-0.919-0.183c-0.315 0-0.627 0.062-0.919 0.183s-0.556 0.297-0.779 0.52l-5.324 5.324c-0.25 0.25-0.391 0.589-0.391 0.943s0.141 0.693 0.391 0.943l2.452 2.452z"></path>
<path fill="none" stroke="currentColor" stroke-linejoin="round" stroke-linecap="round" stroke-miterlimit="4" stroke-width="1.3333" d="M15.912 10.579l3.145 3.145c0.124 0.124 0.222 0.271 0.289 0.433s0.102 0.335 0.102 0.51c0 0.175-0.035 0.348-0.102 0.51s-0.165 0.309-0.289 0.433l-4.39 4.39"></path>
</symbol>
</defs>
</svg>
